<svg width="2560" height="1600" viewBox="0 0 2560 1600" fill="none" xmlns="http://www.w3.org/2000/svg">
<g clip-path="url(#clip0_127_263)">
<path d="M1408.15 0H149.5L1217.12 821.84C1217.04 814.576 1217 807.296 1217 800C1217 491.442 1289.47 210.498 1408.15 0Z" fill="url(#paint0_linear_127_263)"/>
<g filter="url(#filter0_d_127_263)">
<path d="M867.209 552.482L1217.12 821.84C1217.04 814.576 1217 807.295 1217 800C1217 576.142 1255.14 366.818 1321.41 188.385L1889.98 757.955L1575.2 1072.19L1575.2 1072.19C1494.6 1155.91 1381.39 1208 1256 1208C1011.34 1208 813 1009.66 813 765C813 687.991 832.65 615.572 867.209 552.482Z" fill="url(#paint1_linear_127_263)"/>
</g>
<g filter="url(#filter1_d_127_263)">
<path d="M1408.15 0L2560 0V1600H1408.15C1289.47 1389.5 1217 1108.56 1217 800C1217 491.442 1289.47 210.498 1408.15 0Z" fill="url(#paint2_linear_127_263)" shape-rendering="crispEdges"/>
</g>
</g>
<defs>
<filter id="filter0_d_127_263" x="663" y="138.385" width="1376.98" height="1319.61" filterUnits="userSpaceOnUse" color-interpolation-filters="sRGB">
<feFlood flood-opacity="0" result="BackgroundImageFix"/>
<feColorMatrix in="SourceAlpha" type="matrix" values="0 0 0 0 0 0 0 0 0 0 0 0 0 0 0 0 0 0 127 0" result="hardAlpha"/>
<feOffset dy="100"/>
<feGaussianBlur stdDeviation="75"/>
<feComposite in2="hardAlpha" operator="out"/>
<feColorMatrix type="matrix" values="0 0 0 0 0 0 0 0 0 0 0 0 0 0 0 0 0 0 0.02 0"/>
<feBlend mode="normal" in2="BackgroundImageFix" result="effect1_dropShadow_127_263"/>
<feBlend mode="normal" in="SourceGraphic" in2="effect1_dropShadow_127_263" result="shape"/>
</filter>
<filter id="filter1_d_127_263" x="967" y="-250" width="1843" height="2100" filterUnits="userSpaceOnUse" color-interpolation-filters="sRGB">
<feFlood flood-opacity="0" result="BackgroundImageFix"/>
<feColorMatrix in="SourceAlpha" type="matrix" values="0 0 0 0 0 0 0 0 0 0 0 0 0 0 0 0 0 0 127 0" result="hardAlpha"/>
<feOffset/>
<feGaussianBlur stdDeviation="125"/>
<feComposite in2="hardAlpha" operator="out"/>
<feColorMatrix type="matrix" values="0 0 0 0 0 0 0 0 0 0 0 0 0 0 0 0 0 0 0.08 0"/>
<feBlend mode="normal" in2="BackgroundImageFix" result="effect1_dropShadow_127_263"/>
<feBlend mode="normal" in="SourceGraphic" in2="effect1_dropShadow_127_263" result="shape"/>
</filter>
<linearGradient id="paint0_linear_127_263" x1="778.827" y1="0" x2="778.827" y2="821.84" gradientUnits="userSpaceOnUse">
<stop stop-opacity="0"/>
<stop offset="1" stop-opacity="0.05"/>
</linearGradient>
<linearGradient id="paint1_linear_127_263" x1="1351.49" y1="188.385" x2="1351.49" y2="1208" gradientUnits="userSpaceOnUse">
<stop stop-color="#F6FAFF"/>
<stop offset="1" stop-color="#F6FAFF"/>
</linearGradient>
<linearGradient id="paint2_linear_127_263" x1="2560" y1="800" x2="1217" y2="800" gradientUnits="userSpaceOnUse">
<stop stop-color="white" stop-opacity="0"/>
<stop offset="1" stop-color="white" stop-opacity="0.06"/>
</linearGradient>
<clipPath id="clip0_127_263">
<rect width="2560" height="1600" fill="white"/>
</clipPath>
</defs>
</svg>
