<svg width="22" height="21" viewBox="0 0 22 21" fill="none" xmlns="http://www.w3.org/2000/svg">
<path d="M10 20.5C4.48255 20.5 0 16.0114 0 10.5C0 4.98857 4.48857 0.5 10 0.5C11.9254 0.5 13.7064 1.00542 15.3008 2.00421L14.6089 3.11129C13.225 2.25088 11.6727 1.80561 10 1.80561C5.20457 1.80561 1.30566 5.70457 1.30566 10.5C1.30566 15.2954 5.20457 19.1943 10 19.1943C14.7954 19.1943 18.6944 15.2954 18.6944 10.5C18.6944 9.69976 18.6041 8.91756 18.4296 8.23164L19.6992 7.91273C19.8977 8.70093 20 9.59747 20 10.5C20 16.0174 15.5114 20.5 10 20.5Z" fill="white"/>
<path d="M9.99997 13.2918L5.33691 8.62269L6.26351 7.7021L9.99997 11.4385L20.2828 1.15576L21.2094 2.08238L9.99997 13.2918Z" fill="white"/>
</svg>
