<svg width="497" height="97" viewBox="0 0 497 97" fill="none" xmlns="http://www.w3.org/2000/svg">
<path d="M301.79 49.65V74.91H292.37V49.65H286.71V42.02H307.44V49.65H301.79ZM277.52 75.71C269.13 75.71 264.56 70.34 264.56 59.03C264.56 47.72 269.94 41.22 277.81 41.22C280.26 41.22 282.9 41.83 284.78 43.15L282.19 50.45C281.15 49.56 279.97 49.13 278.75 49.13C275.54 49.13 274.51 53.19 274.51 58.37C274.51 65.34 276.4 67.75 279.08 67.75C280.26 67.75 281.52 67.28 282.67 66.52L284.83 73.83C283.28 74.91 280.26 75.71 277.53 75.71M250.74 50.31H250.69C249.85 54.08 249.04 58.13 248.48 61.67H252.95C252.34 57.99 251.58 54.31 250.73 50.31M255.04 74.91C254.84 73.21 254.52 70.91 254.24 68.84H247.4C247.12 71.05 246.83 73.03 246.65 74.91H237.36C239.2 64.26 241.51 54.03 244.95 42.02H257.58C260.65 53.1 263.33 64.41 265.08 74.91H255.04ZM224.97 75.71C222.09 75.71 219.45 75.25 217.04 74.45L218.03 66.95C219.64 67.61 221.79 68.13 223.87 68.13C226.28 68.13 227.07 67.19 227.07 65.82C227.07 64.45 226.28 63.41 222.92 61.24C218.11 58.09 216.94 55.64 216.94 51.77C216.94 44.52 222.08 41.22 227.78 41.22C230.61 41.22 233.34 41.74 235.37 42.63L234.2 49.84C232.13 48.8 230.48 48.47 228.68 48.47C227.5 48.47 226.85 49.18 226.85 50.31C226.85 51.62 227.65 52.66 230.72 54.64C235.57 57.76 236.94 60.58 236.94 63.97C236.94 72.31 231.52 75.7 224.97 75.7M201.07 74.91L195.41 55.07H195.37V74.91H187.36V42.02H200.32L205.97 61.86H206.01V42.02H214.02V74.91H201.06H201.07ZM170.9 50.31H170.86C170.01 54.08 169.21 58.13 168.65 61.67H173.12C172.51 57.99 171.75 54.31 170.9 50.31ZM175.19 74.91C175 73.21 174.67 70.91 174.39 68.84H167.55C167.27 71.05 166.99 73.03 166.8 74.91H157.51C159.35 64.26 161.66 54.03 165.1 42.02H177.73C180.79 53.1 183.48 64.41 185.22 74.91H175.18H175.19ZM142.86 49.13H141.49V56.11H142.42C144.22 56.11 145.3 54.65 145.3 52.29C145.3 50.49 144.73 49.13 142.85 49.13M145.74 74.91L142.4 62.99H141.51V74.91H132.13V42.02H143.77C150.13 42.02 155.17 44.52 155.17 51.35C155.17 56.02 153.9 59.04 151.22 60.36L156.35 74.92H145.75L145.74 74.91ZM124.2 49.65V74.91H114.78V49.65H109.29L109.13 42.02H129.86V49.65H124.2Z" fill="#313644"/>
<path d="M44.12 0H61.99V17.51H44.12V0Z" fill="#313644"/>
<path d="M61.99 17.51C52.93 35.91 32.55 40.3 9.37 38.45L0 54.21C24.64 54.01 52.17 56.55 61.96 39.2L61.99 17.51Z" fill="#313644"/>
<path d="M44.11 78.94H61.93V96.6H44.11V78.94Z" fill="#313644"/>
<path d="M44.11 78.94C53.17 60.54 73.52 55.96 96.7 57.81L106.07 42.05C81.43 42.25 53.89 39.7 44.11 57.06V78.94Z" fill="#313644"/>
<path d="M121.48 88.67C121.48 87.49 120.77 86.78 119.57 86.78H116.9V90.55H119.57C120.77 90.55 121.48 89.86 121.48 88.67ZM123.65 88.67C123.65 91.06 122.15 92.48 119.76 92.48H116.89V95.99C116.89 96.4 116.74 96.55 116.33 96.55H115.39C114.96 96.55 114.81 96.4 114.81 95.99V85.41C114.81 85 114.96 84.85 115.39 84.85H119.76C122.13 84.85 123.65 86.28 123.65 88.67Z" fill="#313644"/>
<path d="M135.4 86.74H135.29C135.29 86.74 135.27 87.73 134.93 88.74L133.66 92.23H137.05L135.8 88.75C135.46 87.73 135.42 86.76 135.41 86.74M140.26 96.55H139.4C138.71 96.55 138.51 96.45 138.38 96.06L137.62 93.93H133.07L132.3 96.06C132.17 96.46 131.97 96.55 131.28 96.55H130.52C130.11 96.55 130.01 96.37 130.14 96.01L134.26 85.3C134.41 84.92 134.58 84.84 134.95 84.84H135.82C136.2 84.84 136.38 84.92 136.51 85.29L140.63 96.02C140.76 96.38 140.66 96.56 140.25 96.56" fill="#313644"/>
<path d="M156.56 85.41L152.54 91.93V95.98C152.54 96.39 152.39 96.54 151.98 96.54H151.04C150.61 96.54 150.48 96.39 150.48 95.98V91.89L146.44 85.4C146.26 85.08 146.32 84.84 146.74 84.84H147.89C148.55 84.84 148.73 84.86 148.98 85.33L151.53 89.78L154.1 85.33C154.36 84.85 154.54 84.84 155.2 84.84H156.27C156.68 84.84 156.73 85.09 156.55 85.4" fill="#313644"/>
<path d="M175.81 85.41V95.99C175.81 96.4 175.68 96.55 175.25 96.55H174.41C173.98 96.55 173.85 96.4 173.85 95.99V90.96C173.85 90.02 173.96 88.95 174.25 87.68H174.13C173.72 88.92 173.31 89.74 172.78 90.7L171.17 93.55C170.99 93.85 170.86 93.95 170.53 93.95H170C169.66 93.95 169.54 93.89 169.36 93.55L167.71 90.68C167.15 89.72 166.83 89 166.44 87.68H166.32C166.58 88.96 166.67 89.94 166.67 90.98V95.99C166.67 96.4 166.54 96.55 166.11 96.55H165.32C164.89 96.55 164.74 96.4 164.74 95.99V85.41C164.74 85 164.89 84.85 165.32 84.85H166.04C166.5 84.85 166.65 84.93 166.83 85.28L170.26 91.41L173.69 85.3C173.89 84.94 174 84.86 174.45 84.86H175.26C175.69 84.86 175.82 85.01 175.82 85.42" fill="#313644"/>
<path d="M192.58 85.41V86.22C192.58 86.63 192.43 86.78 192 86.78H186.96V89.67H191.23C191.64 89.67 191.79 89.82 191.79 90.23V91.04C191.79 91.45 191.64 91.6 191.23 91.6H186.96V94.63H192.18C192.61 94.63 192.74 94.78 192.74 95.19V96C192.74 96.41 192.61 96.56 192.18 96.56H185.46C185.03 96.56 184.89 96.41 184.89 96V85.42C184.89 85.01 185.04 84.86 185.46 84.86H192C192.43 84.86 192.58 85.01 192.58 85.42" fill="#313644"/>
<path d="M210.38 85.41V95.99C210.38 96.4 210.25 96.55 209.82 96.55H208.88C208.6 96.55 208.47 96.48 208.34 96.27L204.3 90.3C203.53 89.15 203.02 87.63 202.95 87.53H202.85C202.85 87.66 203.21 89.24 203.21 90.81V95.98C203.21 96.39 203.06 96.54 202.65 96.54H201.78C201.35 96.54 201.2 96.39 201.2 95.98V85.4C201.2 84.99 201.35 84.84 201.78 84.84H202.72C203.02 84.84 203.15 84.94 203.26 85.1L207.26 91.03C208.1 92.28 208.56 93.7 208.64 93.83H208.74C208.74 93.66 208.38 92.17 208.38 90.5V85.39C208.38 84.98 208.53 84.83 208.94 84.83H209.81C210.24 84.83 210.37 84.98 210.37 85.39" fill="#313644"/>
<path d="M227.41 85.41V86.22C227.41 86.63 227.26 86.78 226.85 86.78H224.02V95.99C224.02 96.4 223.87 96.55 223.46 96.55H222.5C222.09 96.55 221.94 96.4 221.94 95.99V86.78H219.1C218.67 86.78 218.54 86.63 218.54 86.22V85.41C218.54 85 218.67 84.85 219.1 84.85H226.84C227.25 84.85 227.4 85 227.4 85.41" fill="#313644"/>
<path d="M239.65 84.6C242.01 84.6 243.21 85.46 243.98 87.09C244.16 87.47 244.06 87.67 243.66 87.85L242.75 88.25C242.39 88.42 242.24 88.35 242.04 87.97C241.59 87.1 240.93 86.59 239.63 86.59C238.03 86.59 237.24 87.08 237.24 88.11C237.24 89.3 238.59 89.51 240.09 89.68C242.03 89.89 244.27 90.37 244.27 93.12C244.27 95.31 242.61 96.81 239.58 96.81C237.03 96.81 235.72 95.84 235.05 94.06C234.9 93.65 235 93.47 235.39 93.34L236.3 93.01C236.68 92.88 236.84 92.96 237.01 93.36C237.42 94.33 238.29 94.89 239.58 94.89C241.28 94.89 242.2 94.36 242.2 93.18C242.2 92 240.98 91.8 239.6 91.65C237.59 91.44 235.12 91.12 235.12 88.24C235.12 86.15 236.67 84.63 239.63 84.63" fill="#313644"/>
<path d="M273.95 86.27C273.04 86.27 272.55 86.91 272.55 87.64C272.55 88.22 272.8 88.61 273.44 89.27L274.03 88.96C274.79 88.6 275.22 88.25 275.22 87.49C275.22 86.83 274.68 86.27 273.95 86.27ZM271.61 93.32C271.61 94.29 272.33 94.98 273.31 94.98C274.18 94.98 274.73 94.52 275.45 93.83L273.06 91.38C271.99 91.89 271.61 92.55 271.61 93.32ZM273.95 84.6C275.66 84.6 277.01 85.85 277.01 87.47C277.01 88.89 276.29 89.78 274.82 90.49L274.65 90.57L276.68 92.65L277.7 91.66C277.92 91.43 278.14 91.43 278.38 91.66L279.04 92.32C279.22 92.54 279.24 92.68 278.99 92.93L277.92 93.97L279.91 96.06C280.19 96.37 280.14 96.55 279.66 96.55H278.49C278.11 96.55 277.96 96.48 277.73 96.25L276.68 95.18C275.29 96.47 274.42 96.8 273.2 96.8C271.12 96.8 269.66 95.35 269.66 93.29C269.66 91.67 270.63 90.7 271.84 90.06C271.18 89.35 270.75 88.56 270.75 87.62C270.75 86.06 271.85 84.61 273.95 84.61" fill="#313644"/>
<path d="M313.06 85.41V86.22C313.06 86.63 312.91 86.78 312.5 86.78H309.67V95.99C309.67 96.4 309.52 96.55 309.11 96.55H308.16C307.75 96.55 307.6 96.4 307.6 95.99V86.78H304.77C304.34 86.78 304.21 86.63 304.21 86.22V85.41C304.21 85 304.34 84.85 304.77 84.85H312.51C312.92 84.85 313.07 85 313.07 85.41" fill="#313644"/>
<path d="M328.9 85.41V86.22C328.9 86.63 328.75 86.78 328.32 86.78H323.28V89.67H327.55C327.96 89.67 328.11 89.82 328.11 90.23V91.04C328.11 91.45 327.96 91.6 327.55 91.6H323.28V94.63H328.5C328.93 94.63 329.06 94.78 329.06 95.19V96C329.06 96.41 328.93 96.56 328.5 96.56H321.78C321.35 96.56 321.21 96.41 321.21 96V85.42C321.21 85.01 321.36 84.86 321.78 84.86H328.32C328.75 84.86 328.9 85.01 328.9 85.42" fill="#313644"/>
<path d="M341.82 84.6C344.24 84.6 345.67 85.57 346.3 87.35C346.45 87.74 346.35 87.92 345.95 88.07L345.04 88.38C344.64 88.5 344.48 88.45 344.33 88.04C343.97 87.03 343.18 86.52 341.81 86.52C340.11 86.52 339.17 87.35 339.17 88.86V92.5C339.17 94.02 340.11 94.86 341.81 94.86C343.19 94.86 343.97 94.33 344.33 93.33C344.5 92.92 344.66 92.83 345.06 92.98L345.95 93.3C346.35 93.45 346.44 93.63 346.31 94.02C345.69 95.8 344.25 96.79 341.81 96.79C338.78 96.79 337.1 95.14 337.1 92.49V88.88C337.1 86.24 338.78 84.6 341.81 84.6" fill="#313644"/>
<path d="M363.79 85.41V95.99C363.79 96.4 363.64 96.55 363.21 96.55H362.27C361.86 96.55 361.71 96.4 361.71 95.99V91.59H356.83V95.99C356.83 96.4 356.68 96.55 356.27 96.55H355.33C354.9 96.55 354.75 96.4 354.75 95.99V85.41C354.75 85 354.9 84.85 355.33 84.85H356.27C356.68 84.85 356.83 85 356.83 85.41V89.66H361.71V85.41C361.71 85 361.86 84.85 362.27 84.85H363.21C363.64 84.85 363.79 85 363.79 85.41Z" fill="#313644"/>
<path d="M382.03 85.41V95.99C382.03 96.4 381.9 96.55 381.47 96.55H380.53C380.25 96.55 380.12 96.48 379.99 96.27L375.95 90.3C375.18 89.15 374.67 87.63 374.6 87.53H374.5C374.5 87.66 374.86 89.24 374.86 90.81V95.98C374.86 96.39 374.71 96.54 374.3 96.54H373.43C373 96.54 372.85 96.39 372.85 95.98V85.4C372.85 84.99 373 84.84 373.43 84.84H374.37C374.67 84.84 374.8 84.94 374.91 85.1L378.91 91.03C379.75 92.28 380.21 93.7 380.29 93.83H380.39C380.39 93.66 380.03 92.17 380.03 90.5V85.39C380.03 84.98 380.18 84.83 380.59 84.83H381.46C381.89 84.83 382.02 84.98 382.02 85.39" fill="#313644"/>
<path d="M395.48 86.53C393.78 86.53 392.84 87.36 392.84 88.89V92.52C392.84 94.05 393.78 94.88 395.48 94.88C397.18 94.88 398.12 94.05 398.12 92.52V88.89C398.12 87.36 397.16 86.53 395.48 86.53ZM395.48 84.6C398.5 84.6 400.18 86.25 400.18 88.9V92.49C400.18 95.14 398.5 96.79 395.48 96.79C392.46 96.79 390.77 95.14 390.77 92.49V88.9C390.77 86.25 392.45 84.6 395.48 84.6Z" fill="#313644"/>
<path d="M410.99 85.41V94.62H415.72C416.13 94.62 416.28 94.77 416.28 95.18V95.99C416.28 96.4 416.13 96.55 415.72 96.55H409.49C409.06 96.55 408.92 96.4 408.92 95.99V85.41C408.92 85 409.07 84.85 409.49 84.85H410.43C410.84 84.85 410.99 85 410.99 85.41Z" fill="#313644"/>
<path d="M428.61 86.53C426.91 86.53 425.97 87.36 425.97 88.89V92.52C425.97 94.05 426.91 94.88 428.61 94.88C430.31 94.88 431.25 94.05 431.25 92.52V88.89C431.25 87.36 430.29 86.53 428.61 86.53ZM428.61 84.6C431.62 84.6 433.3 86.25 433.3 88.9V92.49C433.3 95.14 431.62 96.79 428.61 96.79C425.6 96.79 423.89 95.14 423.89 92.49V88.9C423.89 86.25 425.57 84.6 428.61 84.6Z" fill="#313644"/>
<path d="M451.11 90.7V92.91C451.11 95.15 449.43 96.8 446.41 96.8C443.39 96.8 441.7 95.15 441.7 92.5V88.89C441.7 86.25 443.38 84.61 446.41 84.61C448.83 84.61 450.27 85.58 450.89 87.36C451.04 87.75 450.94 87.93 450.54 88.08L449.63 88.39C449.23 88.54 449.07 88.46 448.92 88.05C448.56 87.04 447.77 86.53 446.4 86.53C444.69 86.53 443.76 87.36 443.76 88.87V92.51C443.76 94.04 444.7 94.87 446.4 94.87C448.1 94.87 449.07 94.05 449.07 92.93V92.08H446.58C446.17 92.08 446.02 91.93 446.02 91.5V90.71C446.02 90.28 446.17 90.15 446.58 90.15H450.53C450.96 90.15 451.09 90.28 451.09 90.71" fill="#313644"/>
<path d="M468.49 85.41L464.47 91.93V95.98C464.47 96.39 464.32 96.54 463.91 96.54H462.97C462.54 96.54 462.41 96.39 462.41 95.98V91.89L458.37 85.4C458.19 85.08 458.26 84.84 458.67 84.84H459.82C460.48 84.84 460.66 84.86 460.91 85.33L463.46 89.78L466.03 85.33C466.29 84.85 466.47 84.84 467.13 84.84H468.2C468.61 84.84 468.66 85.09 468.48 85.4" fill="#313644"/>
<path d="M317.17 58.86C317.17 53.74 317.19 48.63 317.15 43.51C317.15 42.63 317.3 42.21 318.32 42.23C322.47 42.29 326.62 42.2 330.77 42.3C333.67 42.36 336.48 42.98 339.04 44.45C342.07 46.19 343.94 48.85 344.83 52.15C346.03 56.61 346.03 61.1 344.6 65.53C342.78 71.18 338.74 74.49 333 75.16C328.06 75.74 323.03 75.5 318.04 75.64C317.13 75.67 317.16 75.1 317.16 74.47C317.16 69.27 317.16 64.07 317.16 58.87L317.17 58.86ZM327.25 58.93C327.25 61.59 327.26 64.25 327.25 66.91C327.25 67.55 327.37 67.91 328.14 67.96C331.13 68.13 333.44 66.68 334.44 63.87C335.48 60.95 335.44 57.97 334.81 55C334.06 51.46 331.95 49.86 328.33 49.84C327.48 49.84 327.24 50.14 327.25 50.95C327.29 53.61 327.26 56.27 327.26 58.93H327.25Z" fill="#313644"/>
<path d="M387.15 51.16C385.94 50.71 384.9 50.21 383.8 49.96C382.28 49.61 380.72 49.28 379.18 49.26C375.63 49.22 373.32 51.15 372.47 54.8C371.76 57.86 371.83 60.94 372.78 63.95C373.63 66.66 375.74 68.14 378.49 68.12C379.42 68.12 379.77 67.76 379.76 66.84C379.73 63.84 379.78 60.83 379.73 57.83C379.72 56.87 379.97 56.48 381.02 56.51C383.56 56.58 386.11 56.56 388.65 56.52C389.46 56.51 389.78 56.77 389.78 57.61C389.76 62.9 389.78 68.19 389.74 73.48C389.74 73.87 389.39 74.52 389.07 74.62C382.88 76.47 376.64 77.33 370.38 75.03C366.41 73.57 363.89 70.62 362.68 66.65C361.18 61.72 361.16 56.7 362.71 51.78C364.48 46.18 368.42 42.78 374.16 41.61C379.2 40.58 384.1 41.15 388.8 43.33C389.46 43.64 389.88 43.93 389.57 44.75C388.77 46.84 388 48.93 387.16 51.18L387.15 51.16Z" fill="#313644"/>
<path d="M468.93 42.25C471.58 42.25 474.11 42.25 476.63 42.25C479.83 42.25 479.81 42.25 480.66 45.36C481.33 47.79 482.06 50.21 482.94 52.64C484.65 49.39 485.31 45.85 486.19 42.34H496.17C495.51 44.35 495.03 46.28 494.25 48.08C492.24 52.73 490.09 57.31 488.04 61.94C487.79 62.5 487.65 63.14 487.64 63.75C487.6 67.3 487.6 70.85 487.64 74.41C487.65 75.35 487.35 75.66 486.4 75.65C483.49 75.6 480.58 75.63 477.52 75.63C477.52 74.14 477.42 72.78 477.54 71.45C478.02 65.94 477.04 60.87 474.32 55.91C472.13 51.9 470.85 47.4 469.17 43.12C469.08 42.9 469.04 42.66 468.93 42.25Z" fill="#313644"/>
<path d="M417.22 58.39C417.54 60.42 417.65 62.04 418.08 63.57C419.13 67.35 422.01 68.8 425.74 67.58C427.76 66.92 427.75 66.92 428.39 69.02C428.82 70.43 429.25 71.85 429.72 73.25C430.01 74.1 429.93 74.64 428.96 75C424.25 76.75 419.52 76.96 414.84 75.03C410.75 73.34 408.5 70.07 407.57 65.87C406.3 60.17 406.35 54.51 408.85 49.11C411.87 42.58 418.17 40.47 424.34 41.31C425.95 41.53 427.51 42.17 429.08 42.65C429.76 42.86 429.99 43.28 429.71 44.01C428.97 45.94 428.26 47.89 427.58 49.84C427.34 50.54 427.02 50.63 426.35 50.32C425.63 49.99 424.84 49.76 424.06 49.61C421.59 49.15 419.48 50.14 418.64 52.5C417.93 54.5 417.64 56.65 417.24 58.38L417.22 58.39Z" fill="#313644"/>
<path d="M468.48 42.34C468.48 44.83 468.51 47.2 468.43 49.56C468.43 49.82 467.79 50.26 467.43 50.28C465.95 50.36 464.46 50.37 462.98 50.3C461.97 50.25 461.68 50.62 461.69 51.61C461.73 59.1 461.67 66.58 461.74 74.07C461.75 75.41 461.33 75.7 460.09 75.66C457.31 75.57 454.52 75.63 451.6 75.63C451.6 74.98 451.6 74.48 451.6 73.99C451.6 66.59 451.57 59.19 451.63 51.79C451.63 50.59 451.26 50.24 450.12 50.3C448.68 50.38 447.24 50.36 445.8 50.28C445.47 50.26 444.88 49.85 444.88 49.61C444.81 47.21 444.84 44.81 444.84 42.33H468.48V42.34Z" fill="#313644"/>
<path d="M358.74 75.63C357.25 75.63 355.78 75.63 354.31 75.63C352.78 75.63 351.26 75.6 349.73 75.63C348.95 75.65 348.71 75.34 348.71 74.58C348.73 64.13 348.71 53.68 348.75 43.23C348.75 42.9 349.16 42.3 349.39 42.29C352.47 42.23 355.56 42.25 358.73 42.25V75.62L358.74 75.63Z" fill="#313644"/>
<path d="M403.83 75.62C400.67 75.62 397.62 75.64 394.58 75.59C394.32 75.59 393.9 75.13 393.86 74.84C393.75 74.14 393.82 73.41 393.82 72.69C393.82 64.78 393.8 56.87 393.82 48.96C393.82 46.78 393.95 44.6 394.02 42.42C396.21 42.37 398.4 42.31 400.59 42.26C401.64 42.24 402.69 42.26 403.82 42.26V75.63L403.83 75.62Z" fill="#313644"/>
<path d="M442.54 42.25V75.62C439.39 75.62 436.31 75.64 433.23 75.59C433 75.59 432.69 75.19 432.56 74.91C432.45 74.67 432.53 74.33 432.53 74.03C432.53 63.97 432.55 53.9 432.5 43.84C432.5 42.55 432.84 42.17 434.13 42.22C436.5 42.33 438.87 42.25 441.24 42.25C441.65 42.25 442.06 42.25 442.54 42.25Z" fill="#313644"/>
</svg>
