<svg width="135" height="130" viewBox="0 0 135 130" fill="none" xmlns="http://www.w3.org/2000/svg">
<path d="M58.2799 0H76.1599V17.51H58.2799V0Z" fill="white"/>
<path d="M76.1599 17.51C67.0999 35.91 46.7199 40.3 23.5399 38.45L14.1699 54.21C38.8099 54.01 66.3399 56.55 76.1299 39.2L76.1599 17.51Z" fill="white"/>
<path d="M58.2699 78.9399H76.0899V96.6001H58.2699V78.9399Z" fill="white"/>
<path d="M58.2699 78.9399C67.3299 60.5399 87.6799 55.96 110.86 57.81L120.23 42.05C95.5899 42.25 68.0499 39.7 58.2699 57.06V78.9399Z" fill="white"/>
<path d="M67.2 113.452V122.069H63.9143V113.452H61.9401V110.849H69.1708V113.452H67.2ZM58.7346 122.342C55.8082 122.342 54.2142 120.51 54.2142 116.652C54.2142 112.794 56.0907 110.577 58.8358 110.577C59.6903 110.577 60.6112 110.785 61.2669 111.235L60.3635 113.725C60.0008 113.422 59.5892 113.275 59.1637 113.275C58.044 113.275 57.6847 114.66 57.6847 116.427C57.6847 118.805 58.344 119.627 59.2788 119.627C59.6903 119.627 60.1298 119.466 60.531 119.207L61.2844 121.701C60.7437 122.069 59.6903 122.342 58.7381 122.342M49.3937 113.677H49.3763C49.0833 114.963 48.8008 116.345 48.6054 117.553H50.1646C49.9518 116.297 49.6867 115.042 49.3902 113.677M50.8936 122.069C50.8238 121.489 50.7122 120.705 50.6145 119.999H48.2287C48.1311 120.752 48.0299 121.428 47.9671 122.069H44.7268C45.3686 118.436 46.1743 114.946 47.3742 110.849H51.7795C52.8504 114.629 53.7851 118.487 54.3955 122.069H50.8936ZM40.4051 122.342C39.4006 122.342 38.4797 122.185 37.6391 121.912L37.9844 119.354C38.546 119.579 39.2959 119.756 40.0215 119.756C40.8621 119.756 41.1376 119.436 41.1376 118.968C41.1376 118.501 40.8621 118.146 39.6901 117.406C38.0124 116.331 37.6043 115.496 37.6043 114.175C37.6043 111.702 39.3971 110.577 41.3853 110.577C42.3724 110.577 43.3246 110.754 44.0327 111.058L43.6246 113.517C42.9025 113.162 42.327 113.05 41.6992 113.05C41.2876 113.05 41.0609 113.292 41.0609 113.677C41.0609 114.124 41.3399 114.479 42.4107 115.155C44.1024 116.219 44.5803 117.181 44.5803 118.337C44.5803 121.182 42.6898 122.339 40.4051 122.339M32.0688 122.069L30.0946 115.301H30.0806V122.069H27.2867V110.849H31.8072L33.7779 117.617H33.7919V110.849H36.5858V122.069H32.0653H32.0688ZM21.5455 113.677H21.5315C21.235 114.963 20.956 116.345 20.7607 117.553H22.3198C22.107 116.297 21.8419 115.042 21.5455 113.677ZM23.0418 122.069C22.9755 121.489 22.8604 120.705 22.7628 119.999H20.377C20.2793 120.752 20.1816 121.428 20.1154 122.069H16.875C17.5168 118.436 18.3225 114.946 19.5224 110.849H23.9278C24.9951 114.629 25.9334 118.487 26.5403 122.069H23.0383H23.0418ZM11.7651 113.275H11.2872V115.656H11.6116C12.2394 115.656 12.6161 115.158 12.6161 114.353C12.6161 113.739 12.4173 113.275 11.7616 113.275M12.7696 122.069L11.6046 118.003H11.2942V122.069H8.02243V110.849H12.0825C14.3009 110.849 16.0588 111.702 16.0588 114.032C16.0588 115.625 15.6158 116.655 14.681 117.106L16.4704 122.073H12.7731L12.7696 122.069ZM5.25644 113.452V122.069H1.97072V113.452H0.0558095L0 110.849H7.23065V113.452H5.25644Z" fill="white"/>
<path d="M4.3077 126.763C4.3077 126.361 4.06005 126.118 3.64148 126.118H2.71019V127.405H3.64148C4.06005 127.405 4.3077 127.169 4.3077 126.763ZM5.0646 126.763C5.0646 127.579 4.54139 128.063 3.70776 128.063H2.7067V129.26C2.7067 129.4 2.65438 129.451 2.51137 129.451H2.1835C2.03351 129.451 1.98119 129.4 1.98119 129.26V125.651C1.98119 125.511 2.03351 125.46 2.1835 125.46H3.70776C4.53442 125.46 5.0646 125.948 5.0646 126.763Z" fill="white"/>
<path d="M9.16301 126.105H9.12463C9.12463 126.105 9.11766 126.443 8.99907 126.787L8.55609 127.978H9.73853L9.30253 126.791C9.18394 126.443 9.16998 126.112 9.16649 126.105M10.8582 129.451H10.5582C10.3175 129.451 10.2478 129.417 10.2024 129.284L9.93735 128.558H8.3503L8.08172 129.284C8.03638 129.421 7.96661 129.451 7.72594 129.451H7.46086C7.31785 129.451 7.28297 129.39 7.32831 129.267L8.76537 125.614C8.81769 125.484 8.87699 125.457 9.00604 125.457H9.3095C9.44204 125.457 9.50483 125.484 9.55017 125.61L10.9872 129.271C11.0326 129.393 10.9977 129.455 10.8547 129.455" fill="white"/>
<path d="M16.5436 125.651L15.1415 127.875V129.257C15.1415 129.397 15.0891 129.448 14.9461 129.448H14.6183C14.4683 129.448 14.4229 129.397 14.4229 129.257V127.862L13.0138 125.648C12.951 125.539 12.9719 125.457 13.1184 125.457H13.5195C13.7497 125.457 13.8125 125.464 13.8997 125.624L14.7892 127.142L15.6856 125.624C15.7763 125.46 15.8391 125.457 16.0693 125.457H16.4425C16.5855 125.457 16.6029 125.542 16.5402 125.648" fill="white"/>
<path d="M23.2581 125.651V129.26C23.2581 129.4 23.2127 129.451 23.0627 129.451H22.7697C22.6198 129.451 22.5744 129.4 22.5744 129.26V127.544C22.5744 127.224 22.6128 126.859 22.7139 126.426H22.6721C22.5291 126.849 22.3861 127.128 22.2012 127.456L21.6396 128.428C21.5768 128.53 21.5315 128.564 21.4164 128.564H21.2315C21.1129 128.564 21.0711 128.544 21.0083 128.428L20.4328 127.449C20.2374 127.121 20.1258 126.876 19.9898 126.426H19.9479C20.0386 126.862 20.07 127.196 20.07 127.551V129.26C20.07 129.4 20.0247 129.451 19.8747 129.451H19.5991C19.4492 129.451 19.3968 129.4 19.3968 129.26V125.651C19.3968 125.511 19.4492 125.46 19.5991 125.46H19.8503C20.0107 125.46 20.063 125.487 20.1258 125.607L21.3222 127.698L22.5186 125.614C22.5884 125.491 22.6267 125.464 22.7837 125.464H23.0662C23.2162 125.464 23.2616 125.515 23.2616 125.655" fill="white"/>
<path d="M29.1075 125.651V125.927C29.1075 126.067 29.0551 126.118 28.9052 126.118H27.1472V127.104H28.6366C28.7796 127.104 28.8319 127.156 28.8319 127.295V127.572C28.8319 127.712 28.7796 127.763 28.6366 127.763H27.1472V128.796H28.9679C29.1179 128.796 29.1633 128.848 29.1633 128.987V129.264C29.1633 129.404 29.1179 129.455 28.9679 129.455H26.624C26.474 129.455 26.4252 129.404 26.4252 129.264V125.655C26.4252 125.515 26.4775 125.464 26.624 125.464H28.9052C29.0551 125.464 29.1075 125.515 29.1075 125.655" fill="white"/>
<path d="M35.3161 125.651V129.26C35.3161 129.4 35.2708 129.451 35.1208 129.451H34.7929C34.6953 129.451 34.6499 129.427 34.6046 129.356L33.1954 127.319C32.9268 126.927 32.7489 126.408 32.7245 126.374H32.6896C32.6896 126.419 32.8152 126.958 32.8152 127.493V129.257C32.8152 129.397 32.7629 129.448 32.6199 129.448H32.3164C32.1664 129.448 32.1141 129.397 32.1141 129.257V125.648C32.1141 125.508 32.1664 125.457 32.3164 125.457H32.6443C32.7489 125.457 32.7943 125.491 32.8327 125.545L34.2279 127.568C34.5209 127.995 34.6813 128.479 34.7092 128.523H34.7441C34.7441 128.466 34.6185 127.957 34.6185 127.388V125.644C34.6185 125.504 34.6708 125.453 34.8138 125.453H35.1173C35.2673 125.453 35.3126 125.504 35.3126 125.644" fill="white"/>
<path d="M41.2562 125.651V125.927C41.2562 126.067 41.2039 126.118 41.0609 126.118H40.0738V129.26C40.0738 129.4 40.0215 129.451 39.8784 129.451H39.5436C39.4006 129.451 39.3483 129.4 39.3483 129.26V126.118H38.3577C38.2077 126.118 38.1623 126.067 38.1623 125.927V125.651C38.1623 125.511 38.2077 125.46 38.3577 125.46H41.0574C41.2004 125.46 41.2527 125.511 41.2527 125.651" fill="white"/>
<path d="M45.5255 125.375C46.3487 125.375 46.7673 125.668 47.0358 126.224C47.0986 126.354 47.0637 126.422 46.9242 126.483L46.6068 126.62C46.4812 126.678 46.4289 126.654 46.3592 126.524C46.2022 126.228 45.972 126.054 45.5185 126.054C44.9605 126.054 44.6849 126.221 44.6849 126.572C44.6849 126.978 45.1558 127.05 45.679 127.108C46.3557 127.179 47.137 127.343 47.137 128.281C47.137 129.028 46.558 129.54 45.5011 129.54C44.6117 129.54 44.1547 129.209 43.921 128.602C43.8687 128.462 43.9036 128.401 44.0396 128.356L44.357 128.244C44.4896 128.199 44.5454 128.227 44.6047 128.363C44.7477 128.694 45.0512 128.885 45.5011 128.885C46.0941 128.885 46.415 128.704 46.415 128.302C46.415 127.899 45.9894 127.831 45.5081 127.78C44.807 127.708 43.9455 127.599 43.9455 126.617C43.9455 125.904 44.4861 125.385 45.5185 125.385" fill="white"/>
<path d="M57.4894 125.945C57.172 125.945 57.0011 126.163 57.0011 126.412C57.0011 126.61 57.0883 126.743 57.3115 126.968L57.5173 126.862C57.7824 126.739 57.9324 126.62 57.9324 126.361C57.9324 126.136 57.744 125.945 57.4894 125.945ZM56.6732 128.349C56.6732 128.68 56.9243 128.916 57.2662 128.916C57.5696 128.916 57.7615 128.759 58.0126 128.523L57.179 127.688C56.8057 127.862 56.6732 128.087 56.6732 128.349ZM57.4894 125.375C58.0858 125.375 58.5567 125.801 58.5567 126.354C58.5567 126.838 58.3056 127.142 57.7929 127.384L57.7336 127.411L58.4416 128.121L58.7974 127.783C58.8741 127.705 58.9509 127.705 59.0346 127.783L59.2648 128.008C59.3276 128.083 59.3346 128.131 59.2474 128.216L58.8741 128.571L59.5683 129.284C59.6659 129.39 59.6485 129.451 59.4811 129.451H59.073C58.9404 129.451 58.8881 129.427 58.8079 129.349L58.4416 128.984C57.9568 129.424 57.6533 129.537 57.2278 129.537C56.5023 129.537 55.993 129.042 55.993 128.339C55.993 127.787 56.3314 127.456 56.7534 127.237C56.5232 126.995 56.3732 126.726 56.3732 126.405C56.3732 125.873 56.7569 125.378 57.4894 125.378" fill="white"/>
<path d="M71.131 125.651V125.927C71.131 126.067 71.0787 126.118 70.9357 126.118H69.9486V129.26C69.9486 129.4 69.8963 129.451 69.7533 129.451H69.4219C69.2789 129.451 69.2266 129.4 69.2266 129.26V126.118H68.2395C68.0895 126.118 68.0441 126.067 68.0441 125.927V125.651C68.0441 125.511 68.0895 125.46 68.2395 125.46H70.9392C71.0822 125.46 71.1345 125.511 71.1345 125.651" fill="white"/>
<path d="M76.656 125.651V125.927C76.656 126.067 76.6037 126.118 76.4537 126.118H74.6958V127.104H76.1852C76.3282 127.104 76.3805 127.156 76.3805 127.295V127.572C76.3805 127.712 76.3282 127.763 76.1852 127.763H74.6958V128.796H76.5165C76.6665 128.796 76.7118 128.848 76.7118 128.987V129.264C76.7118 129.404 76.6665 129.455 76.5165 129.455H74.1726C74.0226 129.455 73.9738 129.404 73.9738 129.264V125.655C73.9738 125.515 74.0261 125.464 74.1726 125.464H76.4537C76.6037 125.464 76.656 125.515 76.656 125.655" fill="white"/>
<path d="M81.1625 125.375C82.0066 125.375 82.5054 125.706 82.7252 126.313C82.7775 126.446 82.7426 126.507 82.6031 126.559L82.2857 126.664C82.1462 126.705 82.0903 126.688 82.038 126.548C81.9125 126.204 81.6369 126.03 81.159 126.03C80.5661 126.03 80.2382 126.313 80.2382 126.828V128.07C80.2382 128.588 80.5661 128.875 81.159 128.875C81.6404 128.875 81.9125 128.694 82.038 128.353C82.0973 128.213 82.1531 128.182 82.2926 128.234L82.6031 128.343C82.7426 128.394 82.774 128.455 82.7286 128.588C82.5124 129.195 82.0101 129.533 81.159 129.533C80.1022 129.533 79.5162 128.97 79.5162 128.066V126.835C79.5162 125.934 80.1022 125.375 81.159 125.375" fill="white"/>
<path d="M88.8257 125.651V129.26C88.8257 129.4 88.7734 129.451 88.6234 129.451H88.2955C88.1525 129.451 88.1002 129.4 88.1002 129.26V127.759H86.3981V129.26C86.3981 129.4 86.3457 129.451 86.2027 129.451H85.8749C85.7249 129.451 85.6725 129.4 85.6725 129.26V125.651C85.6725 125.511 85.7249 125.46 85.8749 125.46H86.2027C86.3457 125.46 86.3981 125.511 86.3981 125.651V127.101H88.1002V125.651C88.1002 125.511 88.1525 125.46 88.2955 125.46H88.6234C88.7734 125.46 88.8257 125.511 88.8257 125.651Z" fill="white"/>
<path d="M95.1878 125.651V129.26C95.1878 129.4 95.1425 129.451 94.9925 129.451H94.6646C94.567 129.451 94.5216 129.427 94.4763 129.356L93.0671 127.319C92.7986 126.927 92.6207 126.408 92.5963 126.374H92.5614C92.5614 126.419 92.6869 126.958 92.6869 127.493V129.257C92.6869 129.397 92.6346 129.448 92.4916 129.448H92.1881C92.0382 129.448 91.9859 129.397 91.9859 129.257V125.648C91.9859 125.508 92.0382 125.457 92.1881 125.457H92.516C92.6207 125.457 92.666 125.491 92.7044 125.545L94.0996 127.568C94.3926 127.995 94.553 128.479 94.5809 128.523H94.6158C94.6158 128.466 94.4902 127.957 94.4902 127.388V125.644C94.4902 125.504 94.5426 125.453 94.6856 125.453H94.989C95.139 125.453 95.1844 125.504 95.1844 125.644" fill="white"/>
<path d="M99.8792 126.033C99.2863 126.033 98.9584 126.316 98.9584 126.838V128.077C98.9584 128.599 99.2863 128.882 99.8792 128.882C100.472 128.882 100.8 128.599 100.8 128.077V126.838C100.8 126.316 100.465 126.033 99.8792 126.033ZM99.8792 125.375C100.933 125.375 101.519 125.938 101.519 126.842V128.066C101.519 128.97 100.933 129.533 99.8792 129.533C98.8258 129.533 98.2364 128.97 98.2364 128.066V126.842C98.2364 125.938 98.8224 125.375 99.8792 125.375Z" fill="white"/>
<path d="M105.289 125.651V128.793H106.939C107.082 128.793 107.134 128.844 107.134 128.984V129.26C107.134 129.4 107.082 129.451 106.939 129.451H104.766C104.616 129.451 104.567 129.4 104.567 129.26V125.651C104.567 125.511 104.619 125.46 104.766 125.46H105.094C105.237 125.46 105.289 125.511 105.289 125.651Z" fill="white"/>
<path d="M111.435 126.033C110.842 126.033 110.514 126.316 110.514 126.838V128.077C110.514 128.599 110.842 128.882 111.435 128.882C112.028 128.882 112.356 128.599 112.356 128.077V126.838C112.356 126.316 112.021 126.033 111.435 126.033ZM111.435 125.375C112.485 125.375 113.071 125.938 113.071 126.842V128.066C113.071 128.97 112.485 129.533 111.435 129.533C110.385 129.533 109.789 128.97 109.789 128.066V126.842C109.789 125.938 110.375 125.375 111.435 125.375Z" fill="white"/>
<path d="M119.283 127.456V128.21C119.283 128.974 118.697 129.537 117.644 129.537C116.59 129.537 116.001 128.974 116.001 128.07V126.838C116.001 125.938 116.587 125.378 117.644 125.378C118.488 125.378 118.99 125.709 119.206 126.316C119.259 126.449 119.224 126.511 119.084 126.562L118.767 126.668C118.627 126.719 118.571 126.692 118.519 126.552C118.394 126.207 118.118 126.033 117.64 126.033C117.044 126.033 116.719 126.316 116.719 126.831V128.073C116.719 128.595 117.047 128.878 117.64 128.878C118.233 128.878 118.571 128.599 118.571 128.216V127.926H117.703C117.56 127.926 117.508 127.875 117.508 127.729V127.459C117.508 127.312 117.56 127.268 117.703 127.268H119.081C119.231 127.268 119.276 127.312 119.276 127.459" fill="white"/>
<path d="M125.345 125.651L123.943 127.875V129.257C123.943 129.397 123.891 129.448 123.748 129.448H123.42C123.27 129.448 123.224 129.397 123.224 129.257V127.862L121.815 125.648C121.753 125.539 121.777 125.457 121.92 125.457H122.321C122.551 125.457 122.614 125.464 122.701 125.624L123.591 127.142L124.487 125.624C124.578 125.46 124.641 125.457 124.871 125.457H125.244C125.387 125.457 125.404 125.542 125.342 125.648" fill="white"/>
<path d="M72.5646 116.594C72.5646 114.848 72.5716 113.104 72.5576 111.358C72.5576 111.058 72.6099 110.914 72.9657 110.921C74.4132 110.942 75.8608 110.911 77.3083 110.945C78.3198 110.965 79.2999 111.177 80.1929 111.678C81.2497 112.272 81.902 113.179 82.2124 114.305C82.631 115.827 82.631 117.358 82.1322 118.869C81.4974 120.797 80.0882 121.926 78.0861 122.155C76.363 122.352 74.6086 122.271 72.868 122.318C72.5506 122.329 72.5611 122.134 72.5611 121.919C72.5611 120.145 72.5611 118.371 72.5611 116.598L72.5646 116.594ZM76.0805 116.618C76.0805 117.525 76.084 118.433 76.0805 119.34C76.0805 119.559 76.1224 119.681 76.3909 119.698C77.4339 119.756 78.2396 119.262 78.5884 118.303C78.9511 117.307 78.9372 116.291 78.7174 115.277C78.4558 114.07 77.7199 113.524 76.4572 113.517C76.1607 113.517 76.077 113.619 76.0805 113.896C76.0945 114.803 76.084 115.711 76.084 116.618H76.0805Z" fill="white"/>
<path d="M96.9737 113.967C96.5517 113.814 96.1889 113.643 95.8052 113.558C95.275 113.439 94.7309 113.326 94.1937 113.319C92.9555 113.306 92.1498 113.964 91.8533 115.209C91.6057 116.253 91.6301 117.304 91.9614 118.33C92.2579 119.255 92.9939 119.76 93.9531 119.753C94.2775 119.753 94.3996 119.63 94.3961 119.316C94.3856 118.293 94.403 117.266 94.3856 116.243C94.3821 115.915 94.4693 115.782 94.8356 115.792C95.7215 115.816 96.611 115.809 97.4969 115.796C97.7794 115.792 97.8911 115.881 97.8911 116.168C97.8841 117.972 97.891 119.777 97.8771 121.581C97.8771 121.714 97.755 121.936 97.6434 121.97C95.4843 122.601 93.3078 122.895 91.1243 122.11C89.7396 121.612 88.8606 120.606 88.4385 119.252C87.9153 117.57 87.9084 115.857 88.449 114.179C89.0664 112.269 90.4407 111.109 92.4428 110.71C94.2007 110.358 95.9099 110.553 97.5492 111.296C97.7794 111.402 97.9259 111.501 97.8178 111.781C97.5388 112.494 97.2702 113.207 96.9772 113.974L96.9737 113.967Z" fill="white"/>
<path d="M125.499 110.928C126.423 110.928 127.305 110.928 128.184 110.928C129.301 110.928 129.294 110.928 129.59 111.989C129.824 112.818 130.078 113.643 130.385 114.472C130.982 113.364 131.212 112.156 131.519 110.959H135C134.77 111.644 134.602 112.303 134.33 112.917C133.629 114.503 132.879 116.065 132.164 117.645C132.077 117.836 132.028 118.054 132.025 118.262C132.011 119.473 132.011 120.684 132.025 121.899C132.028 122.219 131.924 122.325 131.592 122.322C130.577 122.305 129.562 122.315 128.495 122.315C128.495 121.807 128.46 121.343 128.502 120.889C128.669 119.009 128.327 117.28 127.379 115.588C126.615 114.22 126.168 112.685 125.582 111.225C125.551 111.15 125.537 111.068 125.499 110.928Z" fill="white"/>
<path d="M107.462 116.434C107.574 117.126 107.612 117.679 107.762 118.201C108.128 119.49 109.133 119.985 110.434 119.569C111.139 119.344 111.135 119.344 111.358 120.06C111.508 120.541 111.658 121.025 111.822 121.503C111.923 121.793 111.895 121.977 111.557 122.1C109.914 122.697 108.264 122.769 106.632 122.11C105.205 121.534 104.421 120.418 104.096 118.985C103.653 117.041 103.671 115.11 104.543 113.268C105.596 111.04 107.794 110.321 109.946 110.607C110.507 110.682 111.051 110.901 111.599 111.064C111.836 111.136 111.916 111.279 111.819 111.528C111.561 112.187 111.313 112.852 111.076 113.517C110.992 113.756 110.88 113.787 110.647 113.681C110.396 113.568 110.12 113.49 109.848 113.439C108.986 113.282 108.25 113.619 107.957 114.424C107.71 115.107 107.609 115.84 107.469 116.43L107.462 116.434Z" fill="white"/>
<path d="M125.342 110.959C125.342 111.808 125.352 112.616 125.324 113.422C125.324 113.51 125.101 113.66 124.975 113.667C124.459 113.694 123.94 113.698 123.423 113.674C123.071 113.657 122.97 113.783 122.973 114.121C122.987 116.676 122.966 119.228 122.991 121.783C122.994 122.24 122.848 122.339 122.415 122.325C121.446 122.294 120.472 122.315 119.454 122.315C119.454 122.093 119.454 121.923 119.454 121.755C119.454 119.231 119.443 116.707 119.464 114.182C119.464 113.773 119.335 113.654 118.938 113.674C118.435 113.701 117.933 113.694 117.431 113.667C117.316 113.66 117.11 113.52 117.11 113.439C117.086 112.62 117.096 111.801 117.096 110.955H125.342V110.959Z" fill="white"/>
<path d="M87.0643 122.315C86.5445 122.315 86.0318 122.315 85.5191 122.315C84.9854 122.315 84.4552 122.305 83.9216 122.315C83.6495 122.322 83.5658 122.216 83.5658 121.957C83.5728 118.392 83.5658 114.827 83.5797 111.262C83.5797 111.15 83.7227 110.945 83.803 110.942C84.8773 110.921 85.9551 110.928 87.0608 110.928V122.311L87.0643 122.315Z" fill="white"/>
<path d="M102.792 122.311C101.689 122.311 100.626 122.318 99.5653 122.301C99.4746 122.301 99.3281 122.144 99.3141 122.045C99.2758 121.807 99.3002 121.558 99.3002 121.312C99.3002 118.614 99.2932 115.915 99.3002 113.217C99.3002 112.473 99.3456 111.73 99.37 110.986C100.134 110.969 100.898 110.948 101.662 110.931C102.028 110.924 102.394 110.931 102.788 110.931V122.315L102.792 122.311Z" fill="white"/>
<path d="M116.294 110.928V122.311C115.195 122.311 114.121 122.318 113.046 122.301C112.966 122.301 112.858 122.165 112.813 122.069C112.774 121.987 112.802 121.871 112.802 121.769C112.802 118.337 112.809 114.902 112.792 111.47C112.792 111.03 112.91 110.901 113.36 110.918C114.187 110.955 115.014 110.928 115.84 110.928C115.983 110.928 116.126 110.928 116.294 110.928Z" fill="white"/>
</svg>
