<svg width="114" height="58" viewBox="0 0 114 58" fill="none" xmlns="http://www.w3.org/2000/svg">
<path d="M0.178803 30.7918C0.129146 30.5918 0.456898 30.5315 0.595939 30.4715C16.9034 23.3915 32.8335 19.0915 50.7698 18.1815C53.6201 18.0315 56.7585 17.7817 59.5691 18.3817C64.1376 19.3517 60.7211 21.9416 58.6256 23.3016C53.7989 26.4416 47.9493 28.4416 42.7154 30.8016H0.178803V30.7918Z" fill="white"/>
<path d="M48.9921 30.7921C49.012 30.6621 49.151 30.6319 49.2503 30.5719C51.6537 29.3419 54.2558 28.3719 56.6989 27.0919C59.1421 25.8119 65.0513 22.532 66.0345 19.942C66.1934 19.532 66.114 19.0018 66.5212 18.9518C68.0208 18.7618 70.0766 19.3218 71.626 19.2218C74.5458 19.7118 77.9722 19.7222 80.7927 20.6222C85.0831 21.9822 80.6338 27.772 78.9852 29.672C78.6475 30.062 78.2503 30.4919 77.8629 30.8019H49.002L48.9921 30.7921Z" fill="white"/>
<path d="M113.904 30.7925H81.7063C81.905 30.1025 82.4115 29.4825 82.7591 28.8525C83.6728 27.1725 85.6293 23.6625 85.3314 21.7925C85.2916 21.5725 85.1426 21.4925 85.1228 21.3125C92.5217 23.1125 99.9505 24.9921 107.081 27.6821C108.869 28.3621 110.806 29.1224 112.514 29.9624C112.971 30.1824 113.517 30.4625 113.894 30.7925H113.904Z" fill="white"/>
<path d="M62.3201 34.1423C62.3797 33.7923 63.0649 33.742 63.3132 33.922L65.0413 38.362L66.7197 33.9821C66.8885 33.7221 67.7625 33.7923 67.7625 34.1423V39.362C67.7625 39.642 66.9879 39.642 66.9879 39.362V35.402L65.379 39.402C65.1704 39.722 64.7533 39.6222 64.6341 39.2922L63.0053 35.2321L63.0848 39.2721C62.9855 39.7821 62.3101 39.552 62.3101 39.362V34.1423H62.3201Z" fill="white"/>
<path d="M17.4893 37.3216L15.7613 37.2318C15.7712 37.0418 15.6918 36.7017 15.9003 36.6317C16.0989 36.5617 17.9363 36.6015 18.0554 36.7015C18.1647 36.7815 18.1647 36.8915 18.1845 37.0115C18.2441 37.4615 18.2441 38.8316 18.1845 39.2816C18.1051 39.9316 17.2708 39.5117 17.4893 38.8817C16.8537 39.6017 15.801 39.7818 14.9072 39.5218C12.4342 38.8018 12.6626 34.2416 15.1257 33.8616C16.1983 33.6916 17.5588 33.8716 17.9859 35.0316C18.1647 35.5116 18.0058 36.1216 17.4794 35.8016C17.251 35.6616 17.1616 34.7919 16.4465 34.5819C14.5596 34.0119 13.8345 35.6716 14.0232 37.2816C14.2715 39.4516 17.2708 39.5616 17.4893 37.3216Z" fill="white"/>
<path d="M75.4794 39.4518C75.4297 39.6218 74.9232 39.6421 74.8239 39.5021C74.804 39.4721 74.7146 38.792 74.7047 38.672C74.6153 37.522 74.6153 35.6418 74.7047 34.4918C74.7544 33.8718 74.9729 33.6418 75.5787 33.9718L78.429 38.192V33.9718C78.429 33.8218 79.1739 33.6122 79.2037 34.3322C79.2434 35.6522 79.1143 37.072 79.1242 38.422C79.1242 39.062 79.4222 39.932 78.3496 39.462L75.4992 35.152V39.462L75.4794 39.4518Z" fill="white"/>
<path d="M43.49 34.502C44.9897 35.942 44.4137 39.2818 42.189 39.5718C38.0476 40.1218 38.1171 34.1721 41.1561 33.8321C42.0698 33.7321 42.8246 33.8617 43.49 34.4917V34.502Z" fill="white"/>
<path d="M5.20412 34.6222V36.2721H7.8459C8.20343 36.2721 8.1935 36.9718 7.93528 36.9718H5.20412V38.7521C5.20412 38.9521 5.6411 38.7921 5.76028 38.7921C6.15754 38.7921 8.16372 38.722 8.32262 38.942C8.39214 39.032 8.44181 39.3117 8.36235 39.4117C8.11407 39.7517 5.27365 39.5018 4.71749 39.4918C4.64797 39.4918 4.49899 39.4119 4.49899 39.3619V33.922C5.37296 33.862 6.2668 33.7821 7.14077 33.8321C7.32947 33.8421 8.12398 33.9221 8.18356 34.0021C8.27295 34.1321 8.23323 34.6222 8.09418 34.6222H5.19421H5.20412Z" fill="white"/>
<path d="M87.2382 35.7416C87.2382 35.7416 86.99 35.8417 86.9403 35.8417C86.4834 35.8417 86.4238 35.2416 86.1755 34.9716C85.7088 34.4516 84.5865 34.3718 84.0204 34.7318C82.342 35.7818 83.1067 39.8917 85.6691 38.8217C86.3643 38.5317 86.5629 37.7117 86.7317 37.6317C87.1588 37.4117 87.417 37.7615 87.2978 38.2015C86.9105 39.6715 84.5865 39.9316 83.4444 39.2816C81.9845 38.4416 81.9447 35.5615 83.1365 34.4515C84.1197 33.5415 86.3444 33.5419 87.0297 34.8119C87.1389 35.0219 87.3673 35.5518 87.2382 35.7518V35.7416Z" fill="white"/>
<path d="M50.0249 35.7416C49.9752 35.8216 49.6376 35.8616 49.5184 35.8016C49.2701 35.6816 49.0914 34.8119 48.4557 34.6019C48.0188 34.4619 47.2044 34.4916 46.8071 34.7216C45.2081 35.6616 45.7941 39.7717 48.3962 38.8417C49.2602 38.5317 49.2205 37.8515 49.4985 37.6615C49.8263 37.4415 50.2037 37.682 50.1143 38.122C49.8163 39.6119 47.5023 39.9219 46.3503 39.3319C44.6818 38.4819 44.7215 35.1415 46.2609 34.1615C47.0951 33.6315 48.7338 33.6719 49.4787 34.3519C49.7468 34.5919 50.2434 35.3918 50.0249 35.7318V35.7416Z" fill="white"/>
<path d="M72.619 34.0519C72.6687 33.8619 73.0064 33.7617 73.1951 33.9117C73.493 34.1617 73.4334 36.3519 73.4036 36.8419C73.3838 37.2319 73.354 37.8518 73.3043 38.2218C73.066 40.0218 69.9078 40.0519 69.3119 38.5919C69.0338 37.9219 68.9543 34.9818 69.0934 34.2418C69.2126 33.6218 69.8482 33.6718 69.9276 34.2218C70.0865 35.2818 69.7985 36.7018 69.9276 37.7818C70.0567 38.8618 71.2684 39.1922 72.0927 38.6422C72.4006 38.4422 72.619 37.9522 72.619 37.6022V34.0318V34.0519Z" fill="white"/>
<path d="M91.0618 37.3219V39.3619C91.0618 39.6419 90.2872 39.6419 90.2872 39.3619V34.0518C90.2872 33.9418 91.3399 33.8321 91.5385 33.8321C92.0153 33.8221 93.068 33.8821 93.4851 34.0621C94.5478 34.5321 94.5974 36.3918 93.6639 37.0118C93.068 37.4018 91.7769 37.2819 91.0718 37.3219H91.0618Z" fill="white"/>
<path d="M98.6594 39.4818C98.6594 39.4818 98.3615 39.5919 98.282 39.5819C97.8847 39.5419 97.6266 38.242 97.4676 37.892L95.3026 37.852C95.1437 38.182 94.9351 39.2916 94.7365 39.4916C94.5776 39.6516 94.23 39.6018 94.1307 39.4018C94.0015 39.1418 94.1803 38.8317 94.2598 38.5717C94.6074 37.4117 95.3522 35.2316 95.8587 34.1816C96.0772 33.7416 96.5639 33.6517 96.832 34.0717C97.2392 35.6517 98.2423 37.3418 98.6098 38.9018C98.6396 39.0518 98.7289 39.3618 98.6594 39.4818Z" fill="white"/>
<path d="M53.1334 33.9418C53.2824 34.6818 55.2091 39.0218 55.0204 39.4018C54.931 39.5818 54.6828 39.6119 54.5139 39.5619C54.2458 39.4819 53.9081 38.1717 53.8485 37.8417C53.5208 37.8817 51.7828 37.752 51.6835 37.892C51.3855 38.412 51.2564 40.2217 50.4023 39.3417L52.3191 33.9418C52.4482 33.7918 53.0043 33.8018 53.1434 33.9418H53.1334Z" fill="white"/>
<path d="M21.5415 33.9517C21.6904 34.6917 23.6171 39.0317 23.4284 39.4117C23.3192 39.6217 22.9915 39.652 22.8226 39.502C22.5843 39.292 22.3757 38.0221 22.1771 37.8921C21.8394 37.8621 20.2007 37.7619 20.0517 37.9419C19.7538 38.3019 19.6942 40.3019 18.8103 39.3619L20.6377 34.1817C20.8065 33.8017 21.2038 33.772 21.5514 33.962L21.5415 33.9517Z" fill="white"/>
<path d="M30.2811 33.9418C30.4599 34.7618 32.3369 38.8317 32.1879 39.3417C32.1482 39.4617 32.0191 39.572 31.89 39.582C31.4033 39.632 31.1054 38.2317 30.9763 37.8417H28.8807C28.7318 37.8617 28.4438 39.3717 28.1359 39.5317C27.7486 39.7217 27.5102 39.3018 27.6393 38.9418C28.3544 37.4818 28.702 35.6116 29.3972 34.1816C29.6058 33.7416 29.8739 33.7518 30.291 33.9418H30.2811Z" fill="white"/>
<path d="M25.4545 38.2713C25.6035 38.4213 25.6034 38.2112 25.6332 38.1512C26.2291 36.9912 26.4973 35.2711 27.113 34.0711C27.689 33.5411 27.8976 33.9411 27.7387 34.6111C27.4805 35.6611 26.5072 38.251 26.0206 39.241C25.6928 39.911 25.236 39.6213 24.9877 39.0613C24.3124 37.5913 23.9052 35.8711 23.2298 34.3811C23.0709 33.8911 23.6668 33.611 23.9449 34.011L25.4644 38.2713H25.4545Z" fill="white"/>
<path d="M111.987 39.5716C111.868 39.6416 111.461 39.6118 111.411 39.4418C111.213 38.8118 111.382 37.8718 111.292 37.2118L109.524 34.3617C109.445 34.0117 109.664 33.7419 110.031 33.8519C110.398 33.9619 111.421 36.0518 111.779 36.4418L113.338 33.9217C113.696 33.6117 114.162 34.0318 113.944 34.4418L112.107 37.2919C112.017 37.6419 112.196 39.4319 111.987 39.5619V39.5716Z" fill="white"/>
<path d="M106.813 34.5324C106.505 34.6524 105.393 34.6424 105.165 34.4924C105.016 34.3924 105.085 34.0025 105.234 33.9225C105.343 33.8625 105.592 33.8427 105.731 33.8327C106.495 33.7727 108.204 33.7425 108.929 33.8425C109.167 33.8725 109.316 33.9626 109.326 34.2326C109.346 34.9726 107.598 34.3523 107.598 34.6623V39.3625C107.598 39.6425 106.823 39.6425 106.823 39.3625V34.5324H106.813Z" fill="white"/>
<path d="M100.149 33.9218V38.792H102.96C103.188 38.792 103.188 39.4917 102.96 39.4917H99.4937C99.4937 39.4917 99.3646 39.3718 99.3646 39.3618V34.1421C99.3646 33.8021 99.9009 33.7918 100.139 33.9218H100.149Z" fill="white"/>
<path d="M38.6534 38.8017C39.011 38.8017 39.0408 39.5019 38.8223 39.5019H35.3562C35.3562 39.5019 35.2271 39.382 35.2271 39.372V33.9316C35.2271 33.8616 36.0017 33.772 36.0017 34.062V38.8017H38.6534Z" fill="white"/>
<path d="M56.5202 38.8013H59.2514C59.4699 38.8013 59.5592 39.5015 59.3407 39.5015H55.8747C55.8747 39.5015 55.7456 39.3816 55.7456 39.3716V34.0616C55.7456 33.7816 56.5202 33.7816 56.5202 34.0616V38.8013Z" fill="white"/>
<path d="M10.2195 38.8014H12.9507C13.1692 38.8014 13.2585 39.5016 13.04 39.5016H9.57397C9.57397 39.5016 9.44485 39.3818 9.44485 39.3718V34.0617C9.44485 33.8017 10.2195 33.7315 10.2195 34.1515V38.8117V38.8014Z" fill="white"/>
<path d="M2.40469 33.7069C3.17934 33.4369 2.95091 34.2369 2.95091 34.6069C2.95091 35.6969 3.15948 37.5368 2.93105 38.5068C2.68277 39.5468 1.16325 39.7266 0.448183 39.1366C0.100581 38.8466 -0.296674 37.6068 0.32901 37.5468C0.914967 37.4968 0.597157 38.5269 1.13346 38.7069C1.41154 38.7969 1.90813 38.7865 2.07696 38.5165C2.33518 38.1065 2.0968 35.0465 2.17625 34.2665C2.19611 34.1065 2.24578 33.7667 2.40469 33.7167V33.7069Z" fill="white"/>
<path d="M88.1122 34.0522C88.2115 33.7122 88.8869 33.8322 88.8869 34.0522V39.3623C88.8869 39.6423 88.1122 39.6423 88.1122 39.3623V34.0522Z" fill="white"/>
<path d="M103.695 34.0516C103.784 33.7216 104.469 33.7819 104.469 34.1419V39.3617C104.469 39.6417 103.695 39.6417 103.695 39.3617V34.0516Z" fill="white"/>
<path d="M81.2793 39.3618C81.2296 39.5618 80.7529 39.6919 80.6238 39.5019C80.594 39.4519 80.5046 38.4917 80.4947 38.3217C80.445 37.3017 80.3755 35.2917 80.5245 34.3417C80.6436 33.5317 81.2793 33.8616 81.2793 33.9716V39.3618Z" fill="white"/>
<path d="M41.4441 34.4716C43.9568 34.2016 44.0759 38.342 42.2485 38.852C39.2492 39.672 39.0308 34.7416 41.4441 34.4716Z" fill="#0055C3"/>
<path d="M91.0618 36.6216V34.5312C91.8663 34.6813 93.6142 34.2913 93.5646 35.6113C93.5149 36.9313 91.8762 36.4916 91.0618 36.6216Z" fill="#0055C3"/>
<path d="M95.6502 37.1421C95.8091 36.5521 96.0077 35.8117 96.256 35.2617C96.2958 35.1717 96.3156 35.0618 96.4348 35.0518L97.13 37.1421H95.6502Z" fill="#0055C3"/>
<path d="M51.9417 37.1425C52.0609 36.8925 52.5774 35.0822 52.6767 35.0522C52.8554 34.9922 52.7958 35.1521 52.8256 35.2421C53.0739 35.8621 53.2825 36.5025 53.501 37.1425H51.9417Z" fill="#0055C3"/>
<path d="M20.3496 37.1425C20.578 36.5125 20.7767 35.8721 21.025 35.2421C21.0647 35.1521 20.9952 34.9922 21.1739 35.0522C21.2832 35.0822 21.7797 36.8825 21.9089 37.1425H20.3496Z" fill="#0055C3"/>
<path d="M30.6486 37.1415H29.0894C29.1887 36.9915 29.8144 34.9411 29.9534 35.0511L30.6486 37.1415Z" fill="#0055C3"/>
</svg>
