<svg width="114" height="58" viewBox="0 0 114 58" fill="none" xmlns="http://www.w3.org/2000/svg">
<path d="M36.0165 29.6797C37.4165 31.7297 38.7365 33.6696 40.0465 35.6196C40.1365 35.7496 40.1565 35.9496 40.1665 36.1196C40.2465 37.2796 40.2165 38.4498 40.4065 39.5898C40.7965 41.9598 41.6565 44.1699 43.0165 46.1699C44.5765 48.4599 46.5465 50.3099 49.0065 51.6099C51.2165 52.7799 53.5465 53.4796 56.0765 53.5796C57.4765 53.6296 58.8465 53.5798 60.1965 53.2998C62.3865 52.8598 64.4165 52 66.2765 50.73C68.9065 48.94 70.8765 46.59 72.1865 43.71C73.1465 41.61 73.6465 39.3698 73.6565 37.0498C73.6765 33.7798 73.6565 30.52 73.6565 27.25C73.6565 27.18 73.6565 27.1096 73.6765 26.8896C73.8565 27.1396 73.9665 27.3 74.0665 27.46C75.2465 29.19 76.4365 30.9199 77.6065 32.6699C77.7265 32.8499 77.7965 33.1096 77.8065 33.3296C77.8265 34.7596 77.8465 36.1899 77.8065 37.6299C77.7765 38.4999 77.6565 39.38 77.5265 40.25C77.2165 42.34 76.5665 44.3197 75.6265 46.1997C74.1265 49.1897 72.0465 51.6999 69.3465 53.6899C67.3565 55.1499 65.1765 56.2199 62.8065 56.9399C60.1665 57.7399 57.4665 57.9097 54.7565 57.6797C52.4365 57.4797 50.2065 56.8398 48.0865 55.8398C43.6365 53.7298 40.3065 50.4598 38.1365 46.0498C37.0565 43.8598 36.3065 41.5496 36.1865 39.0996C36.0565 36.5096 36.0665 33.9196 36.0265 31.3296C36.0265 30.8296 36.0265 30.3299 36.0265 29.6899L36.0165 29.6797Z" fill="white"/>
<path d="M46.4465 29.8999C46.4465 30.1999 46.4465 30.4399 46.4465 30.6899C46.4465 32.7899 46.3865 34.9 46.4565 37C46.5865 40.39 47.9665 43.1797 50.6865 45.2397C52.7865 46.8297 55.1965 47.56 57.8065 47.29C61.3865 46.91 64.1465 45.13 65.9765 42C66.9665 40.3 67.3565 38.44 67.3665 36.5C67.3665 35.49 67.4165 34.47 67.3565 33.46C67.3165 32.81 67.7065 32.3999 68.0165 31.9399C69.0765 30.3399 70.1765 28.7597 71.2465 27.1797C71.2865 27.1197 71.3065 27.05 71.3365 26.98C71.3765 27 71.4265 27.0298 71.4665 27.0498C71.4665 27.1898 71.4865 27.3297 71.4865 27.4697C71.4865 30.7497 71.5465 34.0301 71.4665 37.3101C71.3865 40.7401 70.2065 43.7799 67.9665 46.3999C66.3165 48.3399 64.2865 49.7396 61.9165 50.5996C59.6265 51.4296 57.2765 51.6698 54.8465 51.3198C51.5665 50.8598 48.7865 49.4399 46.4865 47.1099C44.8665 45.4699 43.6965 43.5398 43.0065 41.3198C42.4865 39.6498 42.2865 37.9597 42.3265 36.2197C42.3265 36.0097 42.3765 35.7598 42.4865 35.5898C43.7365 33.7198 44.9965 31.8598 46.2665 30.0098C46.2865 29.9798 46.3365 29.9697 46.4365 29.9097L46.4465 29.8999Z" fill="white"/>
<path d="M56.7965 41.8801C59.3865 41.9901 61.6665 40.0802 62.2165 37.7302C62.7365 35.4502 62.0265 33.6098 60.2665 32.1398C59.9365 31.8698 59.7965 31.5898 59.7365 31.1398C59.5665 29.9798 60.0765 29.22 60.9165 28.57C61.1365 28.4 61.3065 28.3299 61.5465 28.5099C61.8365 28.7199 62.1265 28.94 62.4365 29.11C62.8165 29.32 62.8965 29.5801 62.7165 29.9601C62.6865 30.0301 62.6765 30.1101 62.6365 30.1701C62.1365 30.8901 62.3165 31.4598 62.8765 32.0998C63.2565 32.5398 63.6065 32.73 64.1265 32.57C65.1865 32.24 65.2665 32.4399 65.5765 33.4499C65.6065 33.5499 65.6665 33.6399 65.6965 33.7399C65.8165 34.1099 65.8665 34.4498 65.4065 34.6198C64.4865 34.9598 64.1465 35.5898 64.3065 36.5798C64.3765 37.0198 64.5165 37.2601 64.8965 37.4601C66.2765 38.2001 66.0265 37.8502 65.6165 39.2902C65.4065 40.0402 65.3465 40.0199 64.5565 39.9299C64.1765 39.8899 63.7465 39.7102 63.4465 40.0402C63.0965 40.4402 62.8365 40.91 62.5465 41.36C62.5165 41.41 62.5465 41.54 62.5865 41.61C62.7165 41.89 62.8365 42.1901 63.0065 42.4401C63.2865 42.8501 63.2165 43.1299 62.8365 43.4499C61.7465 44.3999 61.7465 44.4199 60.6865 43.4499C60.3965 43.1899 60.1265 43.0902 59.7665 43.2302C59.5365 43.3202 59.2965 43.4102 59.0565 43.4802C58.3465 43.6802 58.3365 44.3098 58.3065 44.8498C58.2765 45.3398 58.0865 45.57 57.6265 45.59C57.2065 45.61 56.7965 45.62 56.3765 45.61C56.2965 45.61 56.1765 45.5299 56.1465 45.4499C56.0565 45.2599 55.9665 45.06 55.9565 44.86C55.9065 44.14 55.6865 43.6502 54.8665 43.4802C54.2865 43.3602 53.7965 43.19 53.3865 43.78C53.2665 43.96 53.0865 44.1302 52.8965 44.2302C52.7165 44.3202 52.4265 44.3902 52.2665 44.3102C51.8665 44.1102 51.5165 43.83 51.1565 43.57C50.9765 43.44 50.8965 43.2802 51.0365 43.0402C51.2065 42.7502 51.3665 42.4298 51.4365 42.0998C51.4865 41.8598 51.3965 41.58 51.3465 41.32C51.3465 41.27 51.2865 41.2201 51.2565 41.1701C50.8165 40.4401 50.2865 40 49.3365 40.34C48.7465 40.55 48.6565 40.43 48.4165 39.84C48.4165 39.83 48.3965 39.81 48.3965 39.8C47.8465 38.24 47.9065 38.53 49.0765 37.84C49.3965 37.65 49.6365 37.4402 49.5265 37.0202C49.5065 36.9502 49.5065 36.87 49.5265 36.8C49.7165 35.91 49.2865 35.4398 48.4965 35.1198C47.8765 34.8698 47.8965 34.8198 48.0665 34.1598C48.3765 32.9698 48.3765 32.9402 49.5765 33.0202C50.1465 33.0602 50.4165 32.8001 50.7765 32.4001C51.3665 31.7201 51.2965 31.1599 50.8565 30.4699C50.4765 29.8799 50.5265 29.7998 51.0665 29.3698C51.7265 28.8431 52.3932 28.8364 53.0665 29.3498C53.8365 29.9298 54.1365 30.8202 53.8465 31.7302C53.7965 31.9002 53.6465 32.0599 53.5065 32.1799C51.9065 33.5099 51.2065 35.2399 51.5165 37.2599C51.8065 39.1899 52.9365 40.6001 54.7165 41.4401C55.4065 41.7701 56.1365 41.9498 56.8365 41.8698L56.7965 41.8801Z" fill="white"/>
<path d="M56.9865 41.2299C54.6965 41.4399 52.7465 39.6595 52.2665 37.8295C51.7165 35.7495 52.3665 33.8598 53.8465 32.6498C54.1465 32.3998 54.2965 32.1499 54.2865 31.7499C54.2565 30.7999 54.2765 29.8396 54.3065 28.8896C54.3265 28.3996 54.1465 28.0296 53.8065 27.6996C53.4265 27.3396 53.0265 26.9898 52.7065 26.5898C52.5165 26.3398 52.3565 25.9896 52.3465 25.6796C52.3065 24.4296 52.3165 23.1698 52.3465 21.9198C52.3465 21.5298 52.2465 21.2599 51.9065 21.0199C51.1565 20.4799 51.1765 19.4298 51.8965 18.8798C52.3665 18.5198 53.3065 18.62 53.7065 19.06C54.1865 19.59 54.2265 20.4395 53.6565 20.8495C53.0965 21.2595 53.0265 21.7395 53.0465 22.3495C53.0765 23.4095 53.0465 24.4697 53.0665 25.5297C53.0665 25.7597 53.1765 26.0296 53.3265 26.1996C53.7465 26.6996 54.2365 27.1496 54.6665 27.6396C54.7965 27.7896 54.9165 28.0296 54.9165 28.2196C54.9365 29.5796 54.9165 30.9299 54.9265 32.2899C54.9265 32.5999 54.8265 32.7997 54.5565 32.9897C53.3265 33.8797 52.6465 35.0898 52.7165 36.6098C52.7965 38.3498 54.0065 39.9799 55.9565 40.5199C57.8265 41.0399 60.2265 39.8296 60.9265 37.7196C61.5265 35.9196 60.7765 33.9699 59.2165 32.9599C58.8065 32.6999 58.6165 32.4298 58.6365 31.9198C58.6765 30.7398 58.6165 29.5596 58.6665 28.3896C58.6765 28.0696 58.8265 27.6399 59.0565 27.4599C60.3365 26.4999 60.8165 25.2696 60.5865 23.6996C60.5065 23.1196 60.5565 22.5096 60.5865 21.9096C60.6065 21.5296 60.4565 21.2895 60.1465 21.0995C59.5765 20.7495 59.4065 20.28 59.5465 19.56C59.6365 19.07 60.0065 18.7596 60.5765 18.6596C61.1865 18.5496 61.6365 18.76 61.9765 19.31C62.2865 19.82 62.1765 20.5699 61.6765 20.9599C61.2865 21.2699 61.1365 21.6198 61.1465 22.1098C61.1765 23.3798 61.1765 24.6396 61.1665 25.9096C61.1665 26.1396 61.0465 26.3995 60.8965 26.5795C60.4965 27.0395 60.0265 27.4396 59.6165 27.8896C59.4665 28.0596 59.3365 28.3197 59.3265 28.5497C59.2965 29.6397 59.2965 30.7297 59.3265 31.8197C59.3265 32.0397 59.5265 32.3096 59.7165 32.4496C60.4665 32.9996 61.0465 33.6799 61.3965 34.5399C62.3265 36.8699 61.4865 39.6197 59.0765 40.7997C58.3965 41.1297 57.6865 41.3197 56.9865 41.2397V41.2299ZM60.7865 20.5995C61.1465 20.5995 61.4465 20.3296 61.4665 19.9696C61.4865 19.6396 61.1265 19.2497 60.8065 19.2597C60.5365 19.2597 60.1565 19.6498 60.1365 19.9398C60.1265 20.2598 60.4565 20.5895 60.7865 20.5995ZM53.3265 19.9496C53.3265 19.5996 53.0165 19.2599 52.6965 19.2699C52.3865 19.2699 52.0365 19.6298 52.0365 19.9398C52.0365 20.2698 52.3665 20.6195 52.6865 20.6195C53.0165 20.6195 53.3365 20.2896 53.3365 19.9496H53.3265Z" fill="white"/>
<path d="M36.0965 20.75C37.0565 22.16 38.0165 23.5697 38.9665 24.9897C38.9865 25.0097 38.9965 25.0401 39.0165 25.0601C40.0565 26.1501 40.2965 27.4497 40.1865 28.9097C40.0965 30.0497 40.1665 31.1996 40.0965 32.3896C39.9665 32.1996 39.8365 32.0001 39.7065 31.8101C38.5265 30.0801 37.3465 28.3499 36.1665 26.6099C36.0965 26.4999 36.0265 26.37 36.0265 26.25C36.0265 24.42 36.0265 22.5898 36.0265 20.7598C36.0565 20.7598 36.0765 20.7497 36.1065 20.7397L36.0965 20.75Z" fill="white"/>
<path d="M36.0965 3.68994C36.9665 4.95994 37.8365 6.23977 38.6965 7.50977C39.1265 8.14977 39.5665 8.78994 39.9865 9.43994C40.0665 9.55994 40.1565 9.69959 40.1565 9.82959C40.1665 11.6496 40.1565 13.4597 40.1565 15.4297C39.7965 14.9197 39.5065 14.5296 39.2365 14.1196C38.2465 12.6696 37.2565 11.22 36.2965 9.75C36.1265 9.5 36.0265 9.14961 36.0165 8.84961C35.9865 7.13961 36.0065 5.42973 36.0065 3.71973C36.0365 3.70973 36.0565 3.69994 36.0865 3.68994H36.0965Z" fill="white"/>
<path d="M40.1065 23.8999C39.6965 23.2899 39.3065 22.7199 38.9265 22.1499C38.0465 20.8599 37.1565 19.5798 36.2865 18.2798C36.1365 18.0598 36.0265 17.77 36.0265 17.5C35.9965 15.79 36.0065 14.0699 36.0065 12.3599C36.0065 12.3199 36.0365 12.2799 36.0765 12.1899C36.5465 12.8799 36.9865 13.5397 37.4365 14.1997C38.2765 15.4397 39.1365 16.6797 39.9665 17.9297C40.0765 18.0897 40.1565 18.31 40.1565 18.5C40.1765 20.24 40.1765 21.99 40.1765 23.73C40.1765 23.77 40.1465 23.7999 40.1065 23.8999Z" fill="white"/>
<path d="M73.7465 1.41992C74.3065 2.25992 74.8765 3.08992 75.4365 3.91992C76.1665 4.99992 76.9065 6.07992 77.6265 7.16992C77.7265 7.31992 77.7965 7.51971 77.7965 7.69971C77.8165 9.43971 77.8165 11.1897 77.8165 12.9297C77.8165 12.9697 77.7865 12.9996 77.7465 13.0796C77.0465 12.0496 76.3665 11.0498 75.6865 10.0498C75.0465 9.1098 74.4165 8.17975 73.7865 7.23975C73.7265 7.14975 73.6565 7.02992 73.6565 6.91992C73.6565 5.08992 73.6565 3.25969 73.6565 1.42969C73.6865 1.42969 73.7165 1.4099 73.7465 1.3999V1.41992Z" fill="white"/>
<path d="M73.7565 9.96973C74.1765 10.5697 74.5965 11.1798 75.0065 11.7798C75.8665 13.0398 76.7365 14.3096 77.5765 15.5796C77.7165 15.7996 77.8065 16.0999 77.8065 16.3599C77.8265 18.0599 77.8265 19.7597 77.8265 21.4497C77.8265 21.4897 77.8065 21.5296 77.7765 21.6396C77.3965 21.0796 77.0365 20.5598 76.6865 20.0498C75.7665 18.6998 74.8365 17.3597 73.9365 15.9897C73.7765 15.7497 73.6765 15.4199 73.6665 15.1299C73.6465 13.4199 73.6565 11.71 73.6565 10C73.6865 9.99 73.7165 9.96996 73.7465 9.95996L73.7565 9.96973Z" fill="white"/>
<path d="M77.7565 30.1396C77.1265 29.2096 76.5065 28.3097 75.8965 27.4097C75.2165 26.4197 74.5365 25.4199 73.8665 24.4199C73.7565 24.2599 73.6665 24.0499 73.6665 23.8599C73.6465 22.1299 73.6565 20.3997 73.6565 18.6797C73.6565 18.6297 73.6765 18.5697 73.6965 18.4097C73.9365 18.7597 74.1165 19.0298 74.3065 19.2998C75.4265 20.9498 76.5465 22.5897 77.6565 24.2397C77.7465 24.3797 77.8065 24.56 77.8165 24.73C77.8365 26.49 77.8365 28.24 77.8365 30C77.8365 30.04 77.8065 30.0699 77.7665 30.1499L77.7565 30.1396Z" fill="white"/>
<path d="M67.3765 21.3896C67.3765 20.5996 67.3765 19.8198 67.3765 19.0298C67.3765 18.1098 67.3665 17.1798 67.3865 16.2598C67.3865 16.0098 67.4765 15.73 67.6065 15.52C68.8065 13.71 70.0365 11.9196 71.2565 10.1196C71.2965 10.0696 71.3565 10.0297 71.4565 9.92969C71.4665 10.1297 71.4865 10.2499 71.4865 10.3799C71.4865 11.8999 71.4765 13.4199 71.4865 14.9399C71.4865 15.3599 71.3965 15.7101 71.1465 16.0601C69.9765 17.7501 68.8265 19.4499 67.6765 21.1499C67.6165 21.2399 67.5365 21.3299 67.4665 21.4199L67.3665 21.3896H67.3765Z" fill="white"/>
<path d="M71.4965 18.5601C71.4965 19.9601 71.4365 21.3598 71.5165 22.7598C71.5765 23.7698 71.2365 24.5396 70.6665 25.3296C69.6365 26.7496 68.6965 28.2299 67.7065 29.6899C67.6365 29.7999 67.5565 29.9001 67.4365 30.0601C67.4065 29.9101 67.3765 29.8298 67.3765 29.7598C67.3765 28.1098 67.3765 26.4498 67.3965 24.7998C67.3965 24.5898 67.4265 24.3399 67.5365 24.1699C68.7365 22.3799 69.9565 20.5998 71.1665 18.8198C71.2365 18.7198 71.3265 18.62 71.3965 18.52C71.4265 18.54 71.4665 18.5498 71.4965 18.5698V18.5601Z" fill="white"/>
<path d="M46.4365 3.75C46.4365 5.68 46.4365 7.50006 46.4365 9.31006C46.4365 9.42006 46.3765 9.53965 46.3165 9.63965C45.0765 11.4696 43.8365 13.3096 42.5865 15.1396C42.5465 15.2096 42.4665 15.2496 42.3365 15.3696C42.3365 13.4596 42.3365 11.6401 42.3365 9.81006C42.3365 9.70006 42.4165 9.58975 42.4765 9.48975C43.7265 7.63975 44.9765 5.79996 46.2365 3.95996C46.2665 3.91996 46.3065 3.87977 46.4265 3.75977L46.4365 3.75Z" fill="white"/>
<path d="M46.4465 20.9097C46.4465 21.6797 46.4465 22.4497 46.4465 23.2197C46.4465 24.0297 46.4165 24.8299 46.4565 25.6299C46.4865 26.2099 46.3265 26.6797 45.9965 27.1597C44.8265 28.8397 43.6865 30.55 42.5365 32.25C42.5065 32.3 42.4465 32.3297 42.3565 32.4097C42.3465 32.2297 42.3265 32.1097 42.3265 31.9897C42.3265 30.4197 42.3465 28.86 42.3265 27.29C42.3265 26.85 42.4865 26.5097 42.7065 26.1797C43.8565 24.4797 45.0165 22.7898 46.1665 21.0898C46.2265 21.0098 46.2865 20.9399 46.3565 20.8599C46.3865 20.8699 46.4165 20.8796 46.4465 20.8896V20.9097Z" fill="white"/>
<path d="M71.4965 1.54004C71.4965 2.31004 71.4965 3.07961 71.4965 3.84961C71.4965 4.78961 71.4965 5.72992 71.4965 6.66992C71.4965 6.86992 71.4565 7.09977 71.3465 7.25977C70.0865 9.13977 68.8165 10.9996 67.5465 12.8696C67.5365 12.8896 67.4965 12.8997 67.4365 12.9297C67.4165 12.8397 67.3765 12.7699 67.3765 12.6899C67.3765 11.3499 67.4165 10.0099 67.3665 8.66992C67.3265 7.76992 67.5165 7.02002 68.0665 6.27002C69.1265 4.82002 70.0965 3.29982 71.1065 1.81982C71.1865 1.69982 71.2865 1.59975 71.3765 1.48975L71.4965 1.54004Z" fill="white"/>
<path d="M42.3665 23.9199C42.3465 23.6799 42.3265 23.5597 42.3265 23.4497C42.3265 21.9097 42.3065 20.3798 42.3465 18.8398C42.3465 18.4898 42.4565 18.1001 42.6465 17.8101C43.8265 16.0201 45.0365 14.26 46.2465 12.48C46.2765 12.43 46.3165 12.3898 46.3865 12.2998C46.4165 12.4298 46.4565 12.4996 46.4565 12.5796C46.4565 14.1796 46.4565 15.7696 46.4565 17.3696C46.4565 17.7896 46.3465 18.1397 46.1065 18.4897C44.9165 20.1997 43.7565 21.9299 42.5865 23.6499C42.5465 23.7099 42.4965 23.7597 42.3665 23.9297V23.9199Z" fill="white"/>
<path d="M41.2565 8.81006C40.8765 8.25006 40.5165 7.71971 40.1665 7.19971C39.7065 6.51971 39.2365 5.85992 38.7865 5.16992C38.7065 5.03992 38.6665 4.77992 38.7465 4.66992C39.5365 3.45992 40.3565 2.26959 41.1665 1.07959C41.1765 1.05959 41.2165 1.05 41.2965 1C41.6765 1.55 42.0565 2.10967 42.4365 2.65967C42.8765 3.29967 43.3165 3.92984 43.7265 4.58984C43.8065 4.71984 43.8465 4.97984 43.7765 5.08984C42.9665 6.31984 42.1265 7.53006 41.2565 8.81006Z" fill="white"/>
<path d="M56.8865 37.78C56.2765 37.78 55.7965 37.41 55.5965 36.8C55.4465 36.36 55.6465 35.7001 56.0965 35.4201C56.5065 35.1701 56.5665 34.8499 56.5665 34.4099C56.5465 31.4899 56.5565 28.5598 56.5665 25.6398C56.5665 25.2598 56.4665 25 56.1365 24.78C55.6365 24.45 55.4565 23.8698 55.6165 23.3698C55.8065 22.7698 56.3065 22.3598 56.8865 22.3298C57.3565 22.2998 57.9265 22.6801 58.1165 23.1501C58.3565 23.7501 58.2865 24.3499 57.8065 24.6799C57.3565 24.9799 57.2665 25.3498 57.2765 25.8498C57.2965 28.7598 57.2865 31.6698 57.2765 34.5798C57.2765 34.9298 57.3765 35.1701 57.6665 35.3601C58.1465 35.6801 58.3765 36.2902 58.2365 36.7502C58.0265 37.4202 57.5565 37.7802 56.8965 37.7702L56.8865 37.78ZM57.5565 23.6999C57.5565 23.3399 57.2665 23.06 56.8965 23.07C56.5265 23.07 56.2665 23.3599 56.2765 23.7399C56.2765 24.1199 56.5565 24.3798 56.9365 24.3698C57.2965 24.3698 57.5765 24.0702 57.5665 23.7102L57.5565 23.6999ZM57.5565 36.4802C57.5565 36.1602 57.2365 35.8 56.9265 35.78C56.6165 35.76 56.2665 36.0999 56.2565 36.4299C56.2565 36.7699 56.5465 37.1101 56.8765 37.1301C57.1865 37.1501 57.5365 36.8002 57.5465 36.4802H57.5565Z" fill="white"/>
</svg>
