<svg width="114" height="58" viewBox="0 0 114 58" fill="none" xmlns="http://www.w3.org/2000/svg">
<path d="M54.73 52.4399C54.95 52.6299 55.19 52.81 55.43 53C50.89 55.99 45.44 57.73 39.6 57.73C23.8 57.73 11 45.0401 11 29.3701C11 13.7001 23.8 1.01025 39.59 1.01025C45.44 1.01025 50.89 2.75023 55.42 5.74023C55.19 5.94023 54.96 6.11006 54.78 6.31006C48.01 12.1101 44.13 20.5204 44.13 29.3604C44.13 38.2004 47.99 46.6099 54.73 52.4199V52.4399ZM74.93 1.02002C69.07 1.02002 63.63 2.76 59.1 5.75C59.33 5.95 59.56 6.12031 59.74 6.32031C66.51 12.1203 70.39 20.5301 70.39 29.3701C70.39 38.2101 66.53 46.6002 59.79 52.4302C59.57 52.6202 59.33 52.8002 59.09 52.9902C63.63 55.9802 69.07 57.7202 74.92 57.7202C90.72 57.7202 103.52 45.0304 103.52 29.3604C103.52 13.6904 90.72 1 74.93 1V1.02002ZM57.26 7.1001C56.89 7.3901 56.53 7.66998 56.18 7.97998C50.15 13.18 46.34 20.8304 46.34 29.3804C46.34 37.9304 50.15 45.5803 56.18 50.7803C56.53 51.0903 56.89 51.3799 57.26 51.6699C57.63 51.3899 57.99 51.0903 58.34 50.7803C64.37 45.5803 68.18 37.9404 68.18 29.3804C68.18 20.8204 64.37 13.18 58.34 7.97998C57.99 7.66998 57.63 7.3801 57.26 7.1001Z" fill="white"/>
</svg>
