<svg width="114" height="58" viewBox="0 0 114 58" fill="none" xmlns="http://www.w3.org/2000/svg">
<path d="M85.86 29.4302C85.86 45.1302 73.13 57.8604 57.43 57.8604C41.73 57.8604 29 45.1302 29 29.4302C29 13.7302 41.73 1 57.43 1C73.13 1 85.86 13.7302 85.86 29.4302Z" fill="white"/>
<path d="M42.79 39.5903H40C39.65 39.5903 39.4 39.3402 39.4 38.9902V19.8701C39.4 19.5201 39.65 19.27 40 19.27H42.79C43.14 19.27 43.39 19.5201 43.39 19.8701V38.9902C43.39 39.3402 43.14 39.5903 42.79 39.5903Z" fill="#0368DC"/>
<path d="M50.94 39.7803C47.67 39.7803 46.31 37.8099 46.31 33.4399C46.31 32.8399 46.69 32.6499 47.13 32.6499H49.22C49.66 32.6499 49.82 32.9 49.79 33.54C49.69 35.57 49.95 36.5801 51 36.5801C52.17 36.5801 52.36 35.8501 52.36 33.8501C52.36 32.2001 51.54 31.1499 49.98 30.4199C47.66 29.3399 46.33 27.4401 46.36 24.5801C46.39 20.4901 48.36 19.0601 51.31 19.0601C54.51 19.0601 55.91 20.84 55.91 25.02C55.91 25.62 55.47 25.8101 55.09 25.8101H53C52.56 25.8101 52.37 25.5602 52.4 24.9902C52.53 23.1202 52.34 22.2603 51.26 22.2603C50.28 22.2603 49.96 22.86 49.96 24.73C49.96 26.19 50.63 27.2003 52.02 27.8403C54.4 28.9203 55.95 30.8202 55.95 33.7402C55.95 38.0502 54.33 39.77 50.94 39.77V39.7803Z" fill="#0368DC"/>
<path d="M62.35 39.5903H59.56C59.21 39.5903 58.96 39.3402 58.96 38.9902V19.8701C58.96 19.5201 59.21 19.27 59.56 19.27H62.35C62.7 19.27 62.95 19.5201 62.95 19.8701V38.9902C62.95 39.3402 62.7 39.5903 62.35 39.5903Z" fill="#0368DC"/>
<path d="M71.43 39.7803C67.47 39.7803 65.91 36.8002 65.91 29.4102C65.91 22.0202 67.46 19.0703 71.43 19.0703C74.16 19.0703 76.09 20.53 76.09 25.29C76.09 25.86 75.68 26.0503 75.3 26.0503H73.14C72.7 26.0503 72.54 25.7001 72.57 25.1001C72.7 23.0701 72.38 22.25 71.43 22.25C70.07 22.25 70 23.7699 70 29.4199C70 35.0699 70.06 36.6201 71.43 36.6201C72.38 36.6201 72.7 35.7304 72.57 33.6104C72.54 33.0104 72.7 32.6602 73.14 32.6602H75.3C75.71 32.6602 76.09 32.8799 76.09 33.4199C76.09 38.2699 74.16 39.79 71.43 39.79V39.7803Z" fill="#0368DC"/>
</svg>
