<svg width="114" height="58" viewBox="0 0 114 58" fill="none" xmlns="http://www.w3.org/2000/svg">
<path d="M56.8293 6.93833C56.7493 7.83833 56.2294 9.37802 55.6994 10.118C55.2494 10.738 54.1094 11.6783 53.4194 10.8983C52.7994 10.1983 53.4794 9.19802 53.6094 8.36802C53.7894 7.15802 53.4994 5.93841 52.6594 5.01841C52.5994 4.95841 52.2493 4.5683 52.1793 4.6483C52.8193 6.2983 52.6493 8.22832 52.2093 9.91832C51.9393 10.9583 51.3693 12.7482 50.0193 12.5882C48.8293 12.4482 49.0993 10.4182 48.9293 9.56822C48.6693 8.23822 47.6494 6.58826 46.2194 6.35826C47.0794 7.68826 47.5794 9.10835 47.6594 10.7084C47.7894 13.5084 45.4093 18.6785 42.0193 18.3285C38.9593 18.0185 39.8494 12.9584 40.4394 11.0184C40.6694 10.2684 41.0093 9.55822 41.2494 8.81822C41.2694 8.74822 41.3494 8.59845 41.2594 8.55845C40.3694 9.54845 39.7994 10.8185 39.3794 12.0785C38.3694 15.0485 38.3294 20.0282 35.3894 21.7782C33.6894 22.7882 31.2393 22.0383 30.2693 20.3783C29.3493 18.8083 29.4093 16.8981 29.8393 15.1981C29.9293 14.8381 29.9893 14.468 30.0793 14.098C28.9793 14.558 28.3294 16.1482 28.2294 17.2782C28.1594 18.1182 28.3393 19.0285 28.2993 19.8085C28.2293 21.1285 27.2494 20.8184 26.6694 19.9984C25.4694 18.3184 25.6294 15.2282 26.1294 13.3182C26.3894 12.3282 26.8093 11.528 27.2093 10.598C25.5493 11.038 24.3593 12.6884 23.9593 14.2884C23.5593 15.8884 23.7493 17.338 23.5593 18.888C23.3893 20.328 21.9294 20.5585 21.2594 19.3085C20.5894 18.0585 20.7594 16.0483 20.9094 14.6683C20.9494 14.3183 21.0493 13.9583 21.0793 13.6083C19.8693 14.9583 19.6893 17.1683 19.8093 18.9183C19.9493 20.7983 21.1494 22.9684 22.7194 24.0184C24.9894 25.5284 27.7393 25.0684 30.2393 25.4584C31.0693 25.5884 32.3693 26.1183 32.3393 27.1283C32.3293 27.6583 31.7894 28.4084 31.4194 27.7684C31.1694 27.3384 31.4693 27.1182 30.7993 26.8182C29.6893 26.3182 28.5294 27.0983 27.4494 27.4383C25.6994 27.9883 23.8693 28.3581 22.0793 28.7381C22.0793 28.8581 22.2294 28.798 22.3194 28.868C22.7494 29.198 22.2194 29.658 21.9194 29.848C18.8394 31.778 14.9393 30.838 12.0193 32.888C11.2993 33.398 10.6294 34.0982 9.88937 34.5882C9.14937 35.0782 8.24937 35.2683 7.85937 36.1883C7.60937 36.7683 7.49937 38.3281 7.66937 38.9481C7.76937 39.3081 8.30935 40.1381 7.86935 40.4481C7.42935 40.7581 6.97937 40.098 6.85937 40.118C6.78937 40.128 6.61937 40.3281 6.60937 40.4281C6.58937 40.6381 6.89934 40.8685 6.98934 41.0785C7.27934 41.7085 7.05934 42.3781 7.79934 42.7381C9.12934 43.3881 10.4594 43.6181 11.8194 42.9681C12.0494 42.8581 12.5293 42.3684 12.7393 42.7284C13.0193 43.1984 11.7394 43.7085 11.4194 43.8085C10.2294 44.1885 8.46937 43.8281 7.38937 43.2181C6.49937 42.7181 6.77936 42.0983 6.44936 41.3583C6.27936 40.9783 5.93936 40.9383 6.00936 40.3783C6.07936 39.7383 6.93935 39.3684 7.05935 39.0384C7.10935 38.8984 6.95934 38.4284 6.95934 38.2484C6.95934 37.6784 7.06934 36.6182 7.26934 36.0882C7.73934 34.8182 8.66935 34.6884 9.64935 34.0184C10.5193 33.4284 11.2594 32.6282 12.1694 32.0882C14.2294 30.8582 15.9694 31.0485 18.1894 30.5785C18.8894 30.4285 19.5493 30.1584 20.2393 29.9984C20.1993 29.7784 20.0194 29.7181 20.1394 29.4481C20.1694 29.3781 20.8593 28.7083 20.9593 28.6283C21.7493 28.0083 24.8794 27.5681 26.0694 27.2381C27.2594 26.9081 28.3893 26.468 29.5493 26.098C29.5693 25.978 29.3893 26.0382 29.3093 26.0282C27.8693 25.9782 26.4494 25.828 25.0294 25.618V25.888C24.8794 25.918 24.7393 25.9581 24.5893 25.9681C19.0793 26.3681 13.8094 20.3181 16.0094 14.9881C16.1094 14.7481 16.8893 13.1982 17.2393 13.7582C17.4193 14.2182 17.2194 14.7283 17.2294 15.1883C17.2494 16.6183 17.4993 18.468 18.3993 19.638C18.6293 19.928 19.1794 20.2584 19.3194 20.4984C19.4994 20.8084 19.6493 21.3984 19.8293 21.7684C20.3693 22.8884 21.1394 23.9983 22.2194 24.6483C22.9494 25.0883 23.8594 25.4582 24.6994 25.5482L23.0793 24.9481C19.1993 23.2681 17.9794 16.5383 20.4694 13.4183C21.0394 12.6983 21.8694 12.5981 21.7494 13.7381C21.6994 14.2581 21.5294 14.828 21.4794 15.388C21.3894 16.428 21.2694 18.4382 21.9694 19.2782C22.4294 19.8382 22.8894 19.488 22.9794 18.868C23.0994 18.038 23.0093 17.178 23.0593 16.348C23.1893 14.078 23.9194 11.8482 25.8794 10.5482C26.3894 10.2082 28.0893 9.4183 27.8993 10.6483C27.8193 11.1983 27.1494 12.1882 26.9394 12.8382C26.2994 14.7682 26.1293 16.8885 26.7993 18.8285C26.8593 18.9885 27.4393 20.3485 27.7093 20.0785C27.5993 18.2185 27.4594 16.0081 28.6994 14.4681C29.1194 13.9481 30.7894 12.4582 30.7194 14.0282C30.6894 14.7282 30.3293 15.3681 30.2393 15.9481C29.8593 18.3681 30.4894 21.4281 33.4194 21.6581C37.0594 21.9481 37.6394 16.5585 38.2194 14.0785C38.6294 12.3285 39.5193 9.44808 40.8093 8.17808C41.2193 7.76808 41.9594 7.2683 42.1394 8.1483C41.6194 9.8783 40.8293 11.4884 40.5893 13.2884C40.3193 15.2684 40.3593 18.6384 43.3393 17.5384C45.1893 16.8584 46.2193 14.7381 46.7794 12.9681C47.3093 11.2981 47.1393 9.46828 46.3993 7.87828C46.2293 7.51828 45.4794 6.44812 45.4694 6.21812C45.4494 5.62812 46.4494 5.77804 46.8194 5.88804C48.2994 6.34804 49.3993 8.26837 49.6193 9.72837C49.6993 10.2684 49.5994 11.6784 50.0394 11.9784C50.5894 12.3484 51.0894 11.3781 51.2794 10.9681C51.8993 9.61812 52.2194 7.17837 51.9094 5.72837C51.7894 5.15837 51.0194 3.82841 52.2494 4.01841C53.0194 4.14841 53.8694 5.51835 54.0994 6.20835C54.3094 6.83835 54.3394 7.688 54.2794 8.348C54.2294 8.878 53.7793 9.89816 53.7993 10.2582C53.8493 11.0482 54.7694 10.3285 55.0294 10.0585C55.6293 9.42845 56.1693 7.82812 56.2494 6.96812C56.2794 6.58812 56.1794 5.08832 56.3194 4.91832C56.6894 4.45832 57.3894 5.288 57.5694 5.598C58.4494 7.098 58.0693 8.91812 57.5593 10.4681C57.3493 11.0981 56.5194 12.6183 56.9094 13.1683C57.2994 13.7183 58.2493 13.0984 58.5893 12.7284C58.9293 12.3584 59.2494 11.5782 59.4094 11.0882C59.6494 10.3682 59.7893 9.02812 60.0793 8.46812C60.4893 7.67812 60.9994 8.61847 61.1394 9.07847C61.6594 10.7485 61.2894 12.7984 60.4194 14.2884C60.0294 14.9484 58.8094 16.1284 58.7294 16.7684C58.6994 17.0384 58.6993 17.2883 58.9893 17.3783C59.7193 17.5983 60.6293 16.8781 61.3993 16.9481C61.7993 16.9781 62.6493 17.4683 62.4293 17.9383C62.2993 18.2283 61.8594 18.1384 61.5694 18.2484C60.3594 18.6884 59.4394 20.4383 58.6094 21.3783C56.9994 23.2183 53.7793 24.658 51.3993 25.118C47.3393 25.898 43.1993 24.8684 39.1193 25.7084C37.9093 25.9584 36.6893 26.2585 35.9293 27.3085C35.5993 27.7585 35.3193 28.4985 35.9593 28.8285C36.8893 29.2985 38.4794 27.9083 39.2794 27.4383C42.3093 25.6583 44.5094 26.4882 47.7294 26.7782C48.2694 26.8282 48.9794 26.778 49.4994 26.848C49.8394 26.898 49.8593 27.0981 49.7993 27.4081C49.7193 27.8381 49.1494 28.9683 48.9394 29.4183C48.1494 31.0983 47.4893 32.1781 45.8993 33.2181C44.1193 34.3781 41.8793 34.4381 39.8293 34.1581C41.4293 36.9681 38.2193 38.5182 36.0793 39.3382C34.5493 39.9282 32.9393 40.2883 31.3393 40.6283C30.6393 42.1783 30.2993 43.6884 32.5893 43.4584C35.6893 43.1484 40.2594 39.1683 42.6594 37.1683C47.4494 33.1683 51.5493 28.5682 55.7993 24.0282L58.2294 23.8182L43.0694 39.9681C42.7294 40.4181 42.3294 40.8282 41.9794 41.2782C41.6794 41.6682 40.7694 42.8182 40.9194 43.2782C41.0594 43.5082 41.3894 43.4781 41.6294 43.4681C43.9694 43.3481 48.2494 39.3483 50.2194 37.8983C52.2994 36.3683 56.1094 34.378 58.7294 34.638C60.3494 34.798 59.9393 36.2185 59.5193 37.3085L61.5694 34.9481C62.3994 34.8281 63.2594 34.7685 64.0994 34.8085L55.6793 44.0785C56.9293 43.6385 58.1094 43.0285 59.2294 42.3285C63.2194 39.8585 67.3393 34.9583 72.2693 34.6283C73.4793 34.5483 74.4493 34.588 74.2794 36.098C74.2393 36.418 74.0493 36.7182 74.0493 37.0282C74.6093 36.5382 75.0594 35.7784 75.5994 35.2884C75.7094 35.1884 76.2794 34.7684 76.3794 34.7684H78.3993C76.8693 36.3784 75.2594 37.8985 73.7794 39.5585C73.0493 40.3785 71.9094 41.5882 71.3894 42.5082C71.1594 42.9082 70.8993 43.3981 71.5893 43.4681C72.7794 43.5781 75.3593 41.5782 76.3393 40.8182C78.3093 39.3082 82.8694 35.0081 85.0994 34.6581C85.9394 34.5281 86.7894 34.598 86.8794 35.618C87.0494 37.568 84.0593 39.7783 82.8693 41.1283C81.6793 42.4783 81.1794 43.8783 83.7294 43.3583C86.2794 42.8383 89.8693 39.7382 90.8093 37.2982C91.0993 36.5382 91.2493 34.9081 92.2093 34.6581C93.1693 34.4081 93.4994 34.8681 93.2894 35.7381C92.9794 37.0181 90.5194 39.5381 89.4794 40.4081C89.1994 40.6381 88.8194 40.8382 88.5593 41.0482C88.4994 41.0982 88.4793 41.1883 88.5593 41.1883C90.2293 41.0983 91.7994 40.2982 93.0994 39.2982C95.6494 37.3482 97.5994 35.5282 100.919 34.7982C101.849 34.5982 103.879 34.1982 104.049 35.5482C104.119 36.0882 103.839 36.4984 103.819 37.0184C104.379 36.5084 104.839 35.7281 105.389 35.2381C105.489 35.1481 106.069 34.7582 106.139 34.7582H108.159C106.229 36.7082 104.209 38.6782 102.439 40.7782C102.049 41.2382 101.549 41.8082 101.239 42.3182C100.099 44.1682 102.219 43.338 103.089 42.868C104.969 41.848 106.629 40.2884 108.319 38.9984C108.459 38.8884 108.619 38.9183 108.629 39.1083C107.099 40.3683 105.599 41.6884 103.899 42.7284C103.119 43.2084 101.869 43.958 100.949 43.848C99.3894 43.658 100.009 42.0381 100.139 40.9881C98.7494 41.8581 96.5794 43.808 94.9094 43.868C92.2094 43.968 92.8994 40.968 93.5694 39.348C92.1094 40.598 90.5394 41.1882 88.6694 41.5282C88.4794 41.5582 88.2993 41.5182 88.0893 41.5682C87.5294 41.7082 86.2594 42.6283 85.6294 42.9383C83.9494 43.7683 80.3694 44.9381 80.7894 41.7181C81.0794 39.4581 84.5594 37.1583 85.9394 35.4383L86.0193 35.1683C85.9593 35.0583 85.7194 34.9781 85.5994 34.9681C84.3594 34.8181 82.1194 36.5785 81.1294 37.3285C79.0594 38.8985 73.9694 43.6082 71.6294 43.8382C69.7194 44.0282 70.1094 42.2284 70.4194 40.9784C69.5994 41.5184 68.8193 42.1383 67.9893 42.6483C66.8493 43.3483 65.3093 44.2883 63.9593 43.6083C62.8893 43.0583 63.2393 41.1081 63.5193 40.1781C63.5993 39.9081 63.8194 39.6282 63.7794 39.3382C61.2193 41.4582 58.5393 43.5485 55.3293 44.5785C53.1193 47.2485 50.6694 49.8981 47.8894 51.9881C46.5494 52.9881 43.8494 54.8982 42.1394 54.0682C41.1494 53.5882 41.6493 52.1884 42.0893 51.4584C43.9093 48.4384 50.4494 46.3984 53.4794 44.7084L57.1793 40.0585C57.1093 39.9485 57.0294 40.0783 56.9694 40.1283C56.6394 40.4083 56.3194 40.7682 55.9794 41.0482C54.6494 42.1382 52.0593 43.9783 50.2993 43.8583C47.8493 43.6883 48.6594 40.6681 49.4394 39.2381L49.1493 39.1483C47.3193 40.4983 45.4794 42.2084 43.4194 43.2084C42.2594 43.7784 39.6994 44.5981 39.8594 42.4481C40.0194 40.2981 43.4294 37.6181 44.8194 35.9881C44.8994 35.8881 44.9594 35.7681 45.0593 35.6781C45.0693 35.6281 44.9893 35.6283 44.9593 35.6483C44.7193 35.7583 43.8193 36.6383 43.5193 36.8783C41.3893 38.5983 38.9494 40.7781 36.6394 42.1781C34.4594 43.4881 29.6394 45.568 29.3894 41.368L29.7693 39.348C27.0493 41.818 23.9894 43.758 20.5694 45.138C18.1494 47.798 13.2994 53.8882 9.56936 54.2582C8.04936 54.4082 7.07935 53.8381 7.74935 52.2381C9.12935 48.9381 16.2694 46.4084 19.2594 44.7284C21.3894 42.0484 23.4293 39.2881 25.6493 36.6781C25.7993 36.5081 26.5294 35.7883 26.5694 35.6883C26.6094 35.6083 26.5494 35.5582 26.4694 35.5882C24.6594 36.7682 22.9094 38.028 21.1994 39.348L21.1294 39.0785C22.6994 37.8285 24.2693 36.5781 25.9593 35.4881C26.1993 35.3281 27.0294 34.7584 27.2294 34.7084C27.5294 34.6384 27.9793 34.7081 28.3093 34.6981C28.7193 34.6781 29.1593 34.5483 29.5793 34.6683C26.7493 37.8883 24.0694 41.238 21.1594 44.388C21.1594 44.438 21.2194 44.4283 21.2594 44.4183C22.0194 44.2883 24.1094 43.048 24.8494 42.598C28.6494 40.288 31.5394 36.7681 35.7894 35.1981C36.2094 35.0381 37.3694 34.638 37.7594 34.638H39.1294C39.1294 34.638 39.4593 34.8183 39.3693 34.6083C39.3093 34.4583 38.7493 33.9981 38.5493 33.9481L38.7993 33.4081C41.6193 33.8681 44.1694 34.0082 46.4194 32.0082C47.7894 30.7882 48.3593 29.0884 49.0893 27.4584C49.0093 27.3784 47.4094 27.3482 47.1394 27.3182C44.8294 27.0882 42.7094 26.4881 40.4394 27.4681C39.1494 28.0281 36.6193 30.518 35.2993 29.098C34.4193 28.158 35.2693 26.8381 36.0893 26.1981C38.8793 23.9981 45.7894 24.9884 49.2594 24.7884C52.2094 24.6184 56.1894 23.158 58.1594 20.888C59.1394 19.768 59.8794 18.1483 61.4094 17.6683C61.4494 17.4783 61.3193 17.5184 61.1793 17.5384C60.3393 17.6484 59.3493 18.3885 58.4994 17.8085C57.0993 16.8285 59.1294 15.0581 59.6894 14.1981C60.6794 12.6681 60.9193 11.0284 60.5193 9.24839C60.4193 9.22839 60.4293 9.36833 60.3993 9.43833C59.9293 10.9483 59.7794 12.8884 58.1894 13.7284C57.2794 14.2084 56.2294 13.9782 56.1394 12.8382C56.0694 11.9782 56.8993 10.4684 57.1493 9.53843C57.4593 8.34843 57.7193 6.73816 56.8293 5.75816C56.7993 6.14816 56.8693 6.56835 56.8293 6.95835V6.93833ZM16.9994 14.0184C16.8794 13.8784 16.4193 14.6984 16.3693 14.7884C15.5693 16.4484 15.7294 18.658 16.3794 20.348C17.4194 23.068 20.5194 25.5285 23.4994 25.5785L21.7993 24.7181C20.9693 24.1781 20.3493 23.3284 19.8693 22.4784C19.5993 21.9984 19.2493 20.9082 19.0193 20.5882C18.8693 20.3882 18.4094 20.0885 18.1994 19.8285C16.9794 18.3085 16.8194 15.8682 16.9994 14.0082V14.0184ZM39.0193 35.118C38.9193 35.008 38.6093 34.9584 38.4593 34.9584C36.6793 34.9384 33.2794 37.7981 32.1994 39.1781C32.1094 39.2881 31.5093 40.0983 31.5793 40.1683C31.9893 40.1683 32.3993 40.0681 32.7993 39.9881C34.6493 39.5781 37.8994 38.0883 38.8194 36.3583C38.9694 36.0783 39.2693 35.388 39.0193 35.118ZM58.1193 34.9784C55.5093 35.2284 51.1394 39.2082 50.1094 41.5482C49.6794 42.5482 49.4294 43.5583 50.9094 43.4383C53.1094 43.2583 57.1794 39.5782 58.4994 37.8182C59.2494 36.8282 60.3293 34.7581 58.1193 34.9681V34.9784ZM72.5593 34.9784C70.1493 35.1884 67.0294 38.1682 65.6694 40.0682C64.6594 41.4782 63.2593 44.4181 66.4994 43.1581C68.5494 42.3581 73.2293 38.4885 73.7693 36.3285C74.0293 35.2885 73.5993 34.8884 72.5593 34.9784ZM102.259 34.9784C99.6494 35.2284 95.4294 39.2883 94.5094 41.6683C93.6994 43.7783 94.9494 43.7382 96.5094 43.0482C98.5194 42.1582 102.729 38.6582 103.449 36.5682C103.839 35.4282 103.529 34.8584 102.269 34.9784H102.259ZM18.7794 45.2284C16.1894 46.6684 13.2394 47.8484 10.9494 49.7484C10.0994 50.4484 8.35936 52.1582 8.50936 53.3382C8.59936 54.0382 9.87937 53.8684 10.3594 53.7484C12.9094 53.0784 17.0793 47.8781 18.5593 45.6581C18.6093 45.5781 18.8294 45.2884 18.7794 45.2284ZM52.9994 45.2982C50.7994 46.4382 48.4193 47.3881 46.3293 48.7181C44.9293 49.5981 42.6194 51.2582 42.5294 53.0682C42.4693 54.1682 43.6593 53.9381 44.3993 53.6981C46.7093 52.9581 50.6994 48.608 52.1694 46.618C52.2794 46.458 53.0694 45.3782 52.9994 45.2982Z" fill="white"/>
<path d="M31.8394 33.2585C31.8794 33.3285 31.8394 33.4388 31.8494 33.5188C31.5194 33.5588 31.2394 33.4784 30.9394 33.3684C30.7894 33.3184 30.6294 33.1484 30.5194 33.1384C30.3494 33.1284 29.9994 33.2588 29.6894 33.2488C28.9794 33.2288 28.2494 32.9988 27.4994 33.0388C27.1694 33.0488 26.2194 33.3488 26.0594 33.0388C25.9294 32.7888 26.5294 32.6285 26.7094 32.6985C26.6594 32.3485 26.5894 32.0587 26.7094 31.7087L26.1594 31.6687C26.0894 31.1087 26.8094 31.1687 27.1994 31.2087C27.7694 31.2787 28.2294 31.5184 28.6794 31.8484C29.1294 32.1784 29.6294 32.8886 30.1894 32.7986C29.1894 31.4286 28.2594 30.1986 26.3494 30.6086C26.1294 30.6586 25.2894 31.0787 25.4094 30.6287C25.5694 30.0487 27.3194 30.0084 27.8094 30.1184C29.6794 30.5384 29.8094 32.0984 30.9794 32.9084C31.1494 33.0184 31.7994 33.2185 31.8194 33.2585H31.8394Z" fill="white"/>
<path d="M32.6794 21.2785L33.9394 20.5285C36.2394 17.6585 34.6794 13.5688 37.2194 10.8088C37.3894 10.6288 37.9694 9.97875 38.1294 10.5188C38.2194 10.8088 37.8393 12.0385 37.7993 12.4885C37.7393 13.3585 37.9094 14.3386 37.8594 15.1486C37.8094 16.0686 37.0294 18.3687 36.5994 19.2287C35.8794 20.6887 34.3394 21.8285 32.6594 21.2785H32.6794ZM37.8794 10.6687C37.8094 10.5987 37.5894 10.8484 37.5394 10.9084C34.7994 13.7184 36.7394 18.4884 33.7094 21.1384C35.8094 20.8384 36.5293 18.9384 37.0793 17.1584C37.6293 15.3784 37.4094 14.7688 37.4694 13.0388C37.4994 12.2688 37.6994 11.4284 37.8794 10.6784V10.6687Z" fill="white"/>
<path d="M42.9394 17.3683C44.1894 15.1483 44.5594 12.4787 44.1494 9.95866C44.0094 9.08866 43.6794 8.6486 43.3994 7.8986C43.2594 7.5186 43.1694 7.12836 43.7194 7.15836C44.1294 7.18836 44.9794 8.25833 45.2094 8.61833C46.1194 10.1083 46.3894 13.3184 45.7494 14.9284C45.3994 15.8284 43.9594 17.2786 42.9394 17.3586V17.3683ZM43.5594 16.8986C44.1894 16.5086 44.9593 15.7783 45.3293 15.1383C46.1693 13.6983 45.8494 10.2088 44.9694 8.80876C44.7994 8.52876 43.9594 7.4484 43.6594 7.4484C43.6094 7.8484 43.9494 8.27836 44.0894 8.65836C45.0094 11.2384 44.6294 14.4083 43.5594 16.8883V16.8986Z" fill="white"/>
</svg>
