<svg width="181" height="116" viewBox="0 0 181 116" fill="none" xmlns="http://www.w3.org/2000/svg">
<path d="M109.491 68.1434C111.183 68.1618 112.811 68.0517 114.429 68.272C114.484 68.272 114.53 68.2902 114.585 68.2994C116.526 68.7308 117.216 70.5578 115.992 72.146C115.689 72.5407 115.22 72.816 114.815 73.1281C114.641 73.2658 114.411 73.3301 114.172 73.4495C114.567 73.5688 114.926 73.6515 115.257 73.78C116.59 74.2849 117.216 75.4139 116.912 76.8093C116.59 78.3056 115.634 79.2236 114.162 79.5357C112.636 79.857 111.082 79.6644 109.482 79.6827V68.1434H109.491ZM110.99 73.7982V79.0859C111.523 79.0859 112.01 79.0951 112.489 79.0859C112.746 79.0859 113.004 79.0493 113.252 78.9942C113.482 78.9483 113.703 78.8841 113.914 78.7923C114.926 78.3333 115.514 77.2683 115.395 76.1391C115.275 74.9916 114.659 74.2756 113.454 74.0461C112.673 73.8992 111.873 73.89 110.981 73.8074L110.99 73.7982ZM110.971 73.1924C111.633 73.1924 112.204 73.2383 112.765 73.1832C113.979 73.0547 114.815 72.3386 115.054 71.3013C115.275 70.3465 114.898 69.4286 114.08 69.089C113.077 68.6667 112.029 68.7676 110.971 68.8043V73.2016V73.1924Z" fill="#969EA7"/>
<path d="M148.602 68.2354H149.43V79.6461C149.089 79.8297 148.896 79.6552 148.685 79.4257C146.248 76.7085 143.811 74.0003 141.365 71.2922C141.162 71.0627 140.951 70.8516 140.666 70.6496C140.555 73.6423 140.592 76.6259 140.574 79.6736C140.27 79.692 140.004 79.7012 139.682 79.7196V68.2538C140.206 67.9692 140.454 68.3363 140.73 68.6393C142.9 70.9985 145.08 73.3577 147.25 75.717C147.6 76.0934 147.949 76.4605 148.289 76.8094C148.381 76.7726 148.4 76.7636 148.427 76.7453C148.446 76.7361 148.482 76.7177 148.482 76.6993C148.501 76.6259 148.51 76.5433 148.51 76.4698C148.519 73.7525 148.528 71.0443 148.538 68.3271C148.538 68.3087 148.565 68.2905 148.602 68.2446V68.2354Z" fill="#969EA7"/>
<path d="M158.672 73.4127C158.92 73.2199 159.205 73.0456 159.426 72.8253C160.741 71.5033 162.065 70.1997 163.334 68.8319C163.849 68.2719 164.373 68.0331 165.183 68.2902C163.454 69.9609 161.762 71.6043 160.042 73.2659C161.881 75.4324 163.822 77.4061 165.587 79.7194C164.925 79.7194 164.392 79.747 163.868 79.7011C163.702 79.6919 163.527 79.499 163.408 79.3521C161.936 77.6171 160.483 75.8729 159.012 74.1287C158.92 74.0186 158.791 73.9269 158.635 73.78C158.405 74.3033 158.525 74.7805 158.506 75.2487C158.488 75.7352 158.506 76.231 158.506 76.7176V79.6643H157.081V68.1893H158.479V73.2751C158.543 73.3118 158.607 73.3576 158.672 73.3943V73.4127Z" fill="#969EA7"/>
<path d="M125.4 75.2028C124.848 76.6716 124.297 78.1405 123.726 79.6644H122.595C122.687 79.4257 122.761 79.2146 122.853 79.0035C124.398 75.5426 125.934 72.0725 127.488 68.6117C127.607 68.3546 127.598 67.9324 128.012 67.9324C128.426 67.9324 128.407 68.3638 128.518 68.63C130.007 72.0634 131.479 75.5058 132.95 78.9392C133.051 79.1687 133.134 79.4074 133.244 79.692H131.552C130.973 78.214 130.384 76.7084 129.787 75.2028H125.391H125.4ZM129.483 74.4135C128.867 72.9906 128.269 71.641 127.607 70.1171C126.954 71.641 126.375 72.9998 125.768 74.4135H129.483Z" fill="#969EA7"/>
<path d="M180.991 79.7012H179.262C179.179 79.4992 179.087 79.2697 178.995 79.0311C178.563 77.9295 178.122 76.8278 177.708 75.717C177.561 75.3314 177.358 75.1477 176.917 75.1661C175.675 75.1936 174.443 75.1753 173.128 75.1753C172.558 76.69 171.997 78.1773 171.427 79.692H170.314C170.415 79.435 170.489 79.2238 170.581 79.0127C172.117 75.5702 173.652 72.1277 175.197 68.6944C175.326 68.4098 175.326 67.9324 175.758 67.9599C176.163 67.9783 176.154 68.4555 176.282 68.7401C177.754 72.1183 179.216 75.515 180.678 78.9024C180.779 79.1319 180.862 79.3799 181 79.7104L180.991 79.7012ZM177.184 74.4227C176.558 72.9631 175.979 71.6137 175.326 70.1081C174.664 71.6412 174.075 72.9998 173.459 74.4227H177.184Z" fill="#969EA7"/>
<path d="M17.9339 75.1936H13.5382C12.9864 76.6624 12.4346 78.1589 11.8645 79.6828H10.7609C10.8529 79.4349 10.9173 79.2238 11.0092 79.0219C12.5634 75.5335 14.1175 72.0449 15.6809 68.5657C15.7912 68.327 15.8004 67.9507 16.1682 67.9507C16.5453 67.9507 16.5361 68.3362 16.6465 68.5749C18.1546 72.0541 19.6444 75.5426 21.1434 79.0219C21.2354 79.233 21.2997 79.4441 21.4009 79.7012H19.7088C19.1202 78.214 18.5316 76.7267 17.9339 75.2028V75.1936ZM15.7728 70.1081C15.1015 71.6504 14.5038 72.9998 13.9336 74.4227H17.6488C17.0327 72.9998 16.4441 71.6412 15.7728 70.1081Z" fill="#969EA7"/>
<path d="M70.6094 79.6919C70.7106 79.4349 70.7657 79.2695 70.8393 79.1135C72.4118 75.5975 73.9752 72.0816 75.5569 68.5749C75.6673 68.3362 75.8512 67.9966 76.0444 67.9691C76.403 67.9048 76.4122 68.3362 76.5134 68.5749C78.0215 72.0541 79.5205 75.5518 81.0195 79.0402C81.1023 79.2238 81.1667 79.4165 81.2678 79.6735H79.5573C78.9872 78.2323 78.3986 76.7267 77.8009 75.2212H73.4051C72.8441 76.7083 72.274 78.2048 71.7038 79.7103H70.6003L70.6094 79.6919ZM73.7821 74.4134H77.4974C76.8721 72.9905 76.2835 71.6317 75.6214 70.117C74.9684 71.6409 74.3891 72.9814 73.7821 74.4134Z" fill="#969EA7"/>
<path d="M86.859 78.8016C86.9694 78.2875 87.0797 77.8102 87.2085 77.1859C87.4384 77.4797 87.5856 77.6724 87.7327 77.8652C88.2385 78.5354 88.9006 78.9301 89.7558 79.0127C91.5307 79.1871 92.763 77.4154 92.1652 75.7997C92.0181 75.3958 91.6319 75.0469 91.2732 74.7806C90.9054 74.5052 90.4548 74.3584 90.0318 74.1657C89.6363 73.9821 89.2133 73.8351 88.827 73.6423C87.6315 73.064 87.043 72.1186 87.1534 70.7783C87.2545 69.4839 87.9258 68.6117 89.103 68.1343C90.5008 67.5652 92.1008 67.7672 93.1676 68.6393C93.0296 69.0524 92.8917 69.4839 92.717 70.0255C92.5331 69.7593 92.4043 69.5757 92.2756 69.4105C91.687 68.6577 90.749 68.3823 89.8478 68.676C88.3948 69.1442 87.9626 70.9433 89.0938 71.9623C89.4616 72.302 89.9581 72.5224 90.4179 72.7519C90.9697 73.0273 91.5674 73.2201 92.1192 73.4955C93.4251 74.1657 93.9125 75.2029 93.6366 76.635C93.3147 78.315 92.0273 79.5268 90.2892 79.7196C89.0477 79.8573 87.8798 79.637 86.8774 78.8108L86.859 78.8016Z" fill="#969EA7"/>
<path d="M38.7448 68.1986H40.3633C41.6232 71.3841 42.9107 74.6062 44.2533 78.0028C44.4648 77.6264 44.6211 77.4061 44.7223 77.1583C45.4488 75.3682 46.1753 73.5688 46.8926 71.7695C47.2697 70.8056 47.6191 69.8326 47.9778 68.8687C48.0605 68.6576 48.1525 68.4465 48.2444 68.217H49.3572C47.7387 72.0542 46.1477 75.8547 44.5292 79.6828H43.7935C42.129 75.9098 40.4645 72.1093 38.7448 68.1986Z" fill="#969EA7"/>
<path d="M28.7118 68.9422C27.4335 68.9973 26.2564 69.0431 25.0426 69.0982C25.0426 68.8136 25.0426 68.5383 25.0426 68.2629C25.5851 68.116 32.6018 68.0701 33.6593 68.217V69.0982C32.5006 69.0523 31.3787 69.0065 30.174 68.9606V79.7011H28.7118V68.9422Z" fill="#969EA7"/>
<path d="M6.15362 78.7188V79.646H0.176125C-0.0077981 79.132 -0.0721307 69.3278 0.102596 68.217H1.50958V78.8291C3.07292 78.9944 4.58108 78.7831 6.15362 78.7188Z" fill="#969EA7"/>
<path d="M63.9239 68.2078H65.3861C65.4044 68.4373 65.4229 68.63 65.4229 68.832C65.4229 71.9807 65.4229 75.1387 65.4229 78.2874C65.4229 78.7464 65.3676 79.2238 65.2389 79.6552C64.8526 80.968 63.694 81.8768 62.3421 81.9962C62.103 82.0145 61.9283 81.9777 61.8823 81.6472C62.0019 81.6013 62.1214 81.5188 62.2593 81.4912C63.2433 81.2893 63.6939 80.6192 63.8318 79.7012C63.9146 79.1136 63.9239 78.5168 63.9331 77.9201C63.9331 74.9458 63.9331 71.9807 63.9331 69.0063C63.9331 68.7493 63.9331 68.5015 63.9331 68.1894L63.9239 68.2078Z" fill="#969EA7"/>
<path d="M54.7001 68.1894H56.0336V79.6644H54.7461C54.599 79.1228 54.5438 69.3736 54.7001 68.1894Z" fill="#969EA7"/>
<path d="M17.5385 54.3275C41.4117 40.0618 67.2345 33.1862 95.016 34.0766C119.377 34.8569 141.962 41.7693 162.847 54.3275H17.5385Z" fill="#969EA7"/>
<path d="M166.755 57.5222H13.7865C14.4394 56.7969 15.1475 56.5676 16.0579 56.5676C43.398 56.586 70.7473 56.5858 98.0875 56.5858C120.278 56.5858 142.468 56.586 164.658 56.5676C165.514 56.5676 166.167 56.7694 166.746 57.5222H166.755Z" fill="#969EA7"/>
</svg>
