<svg width="98" height="116" viewBox="0 0 98 116" fill="none" xmlns="http://www.w3.org/2000/svg">
<path opacity="0.35" d="M46.6439 79.151C46.8484 79.3252 47.0714 79.4902 47.2945 79.6644C43.0749 82.4051 38.0095 84 32.5817 84C17.8967 84 6 72.3682 6 58.0047C6 43.6412 17.8967 32.0092 32.5724 32.0092C38.0095 32.0092 43.0749 33.6041 47.2852 36.3448C47.0714 36.5281 46.8577 36.684 46.6904 36.8673C40.3981 42.1837 36.792 49.8926 36.792 57.9955C36.792 66.0985 40.3796 73.8073 46.6439 79.1329V79.151ZM65.4276 32.0184C59.9812 32.0184 54.9251 33.6133 50.7148 36.354C50.9286 36.5373 51.1423 36.6932 51.3096 36.8765C57.6019 42.1929 61.208 49.9018 61.208 58.0047C61.208 66.1076 57.6205 73.7982 51.3561 79.1421C51.1516 79.3162 50.9286 79.4811 50.7055 79.6552C54.9251 82.3959 59.9812 83.9908 65.4183 83.9908C80.1033 83.9908 92 72.359 92 57.9955C92 43.632 80.1033 32 65.4276 32V32.0184ZM48.9954 37.5915C48.6515 37.8573 48.3169 38.1139 47.9916 38.398C42.3871 43.1644 38.846 50.1767 38.846 58.0139C38.846 65.851 42.3871 72.8631 47.9916 77.6295C48.3169 77.9137 48.6515 78.1796 48.9954 78.4454C49.3392 78.1888 49.6738 77.9137 49.9991 77.6295C55.6036 72.8631 59.1447 65.8602 59.1447 58.0139C59.1447 50.1676 55.6036 43.1644 49.9991 38.398C49.6738 38.1139 49.3392 37.8481 48.9954 37.5915Z" fill="#969EA7"/>
</svg>
