<svg width="98" height="116" viewBox="0 0 98 116" fill="none" xmlns="http://www.w3.org/2000/svg">
<path d="M31.1734 54.5652C31.1734 55.7786 30.7402 56.6635 29.8737 57.2382C28.9981 57.8039 27.7445 58.0958 26.1038 58.0958H24.9885V51.2442H26.196C29.5142 51.2442 31.1826 52.3573 31.1826 54.5743L31.1734 54.5652Z" fill="#969EA7"/>
<path d="M79.648 26.0091L0 30.4338L22.1311 90L98 66.389L79.648 26V26.0091ZM39.6259 58.4426C38.953 59.5921 38.0035 60.55 36.7776 61.3072C35.5517 62.0736 34.0861 62.6485 32.3533 63.0316C30.6296 63.4148 28.7216 63.6063 26.62 63.6063H25.0807V71.2789H15.218V45.7065H26.7674C31.0812 45.7065 34.4825 46.4271 36.9435 47.8686C39.4138 49.3101 40.6398 51.5087 40.6398 54.4464C40.6398 55.9518 40.3079 57.2748 39.6259 58.4334V58.4426ZM65.0199 71.2607C63.499 71.5526 61.7846 71.6897 59.8674 71.6897C57.139 71.6897 54.7057 71.3794 52.558 70.7591C50.4287 70.1387 48.6129 69.2718 47.1289 68.1314C45.6449 66.991 44.5203 65.6133 43.746 63.9803C42.9718 62.3381 42.5846 60.5226 42.5846 58.5245C42.5846 56.5265 42.9994 54.7476 43.8197 53.1145C44.6493 51.4814 45.8107 50.0946 47.3132 48.9268C48.8064 47.7681 50.5946 46.8741 52.6777 46.2355C54.7424 45.606 57.0284 45.2866 59.5171 45.2866C61.4343 45.2866 63.2225 45.3415 64.7802 45.6791C66.3472 46.0166 66.3842 46.0622 67.6285 46.5092L67.6101 53.37C66.6422 52.8226 65.5361 52.3755 64.3286 52.0197C63.1211 51.6639 61.8122 51.4814 60.4388 51.4814C58.2082 51.4814 56.4016 52.0926 55.0005 53.2969C53.5995 54.5103 52.899 56.2437 52.899 58.488C52.899 59.6558 53.1202 60.6686 53.5534 61.5444C53.9959 62.4203 54.5858 63.15 55.3232 63.7339C56.0698 64.3178 56.9362 64.7559 57.9225 65.0479C58.918 65.3489 59.9872 65.4949 61.1302 65.4949C62.2731 65.4949 63.4622 65.367 64.5959 65.1207C65.7205 64.8744 66.928 64.5186 68.2092 64.0442V70.4579C66.6607 70.905 66.5408 70.9687 65.0199 71.2607ZM72.947 33.5907C74.0992 32.6053 75.5278 32.1217 77.2238 32.1217C78.9198 32.1217 80.3485 32.6145 81.5007 33.5907C82.6529 34.5669 83.2244 35.9445 83.2244 37.7053C83.2244 39.4661 82.6437 40.7798 81.5007 41.756C80.3485 42.7413 78.9198 43.2247 77.2238 43.2247C75.5278 43.2247 74.0992 42.7322 72.947 41.756C71.7948 40.7707 71.2141 39.4205 71.2141 37.7053C71.2141 35.9901 71.7856 34.576 72.947 33.5907ZM82.1645 71.2789H72.2557V45.7065H82.1645V71.2789Z" fill="#969EA7"/>
</svg>
