<svg width="121" height="116" viewBox="0 0 121 116" fill="none" xmlns="http://www.w3.org/2000/svg">
<path d="M26.9115 51.8343H18.6239C18.6332 51.6921 18.6424 51.5214 18.6424 51.3508C18.6424 50.5072 18.4578 49.711 18.1256 49.0001L18.144 49.0286C17.6456 48.3272 16.289 47.9764 14.0741 47.9764C13.8341 47.9574 13.5572 47.9479 13.2712 47.9479C12.016 47.9479 10.8163 48.1848 9.70881 48.6114L9.78263 48.5924C9.08124 49 8.73055 49.8816 8.73055 51.256C8.7121 51.3697 8.70287 51.5025 8.70287 51.6352C8.70287 52.4599 9.07202 53.1991 9.65344 53.692C10.161 53.9859 10.7701 54.1755 11.4162 54.1944L13.0866 54.3175C16.6674 54.564 18.9008 54.7346 19.7867 54.8294C22.1401 54.8863 24.2812 55.7583 25.9794 57.1611L25.9609 57.1422C26.9484 58.1185 27.6036 59.4455 27.7513 60.9241V60.9526C27.862 61.872 27.9266 62.9431 27.9266 64.0331C27.9266 64.0711 27.9266 64.1186 27.9266 64.1565C27.9451 64.4219 27.9543 64.7536 27.9543 65.0759C27.9543 66.8958 27.6775 68.6493 27.1607 70.2891L27.1975 70.1658C26.2747 72.4881 24.2166 73.9574 21.0234 74.5735C19.4176 74.8294 17.5718 74.9715 15.6799 74.9715C15.3846 74.9715 15.0985 74.9715 14.8032 74.962H14.8493C14.3602 74.981 13.7972 75 13.225 75C10.3733 75 7.58616 74.6777 4.90978 74.0616L5.15898 74.1091C3.06402 73.5498 1.42127 71.9667 0.738328 69.9193V69.8721C0.276884 68.2702 0.0277137 66.4408 0.0277137 64.545C0.0277137 64.3365 0.0276946 64.1186 0.0369235 63.91V63.9385H8.31524V64.6494C8.31524 66.1186 8.73054 67.0664 9.55191 67.493C10.1518 67.7773 10.844 67.9479 11.5823 67.9479C11.6007 67.9479 11.61 67.9479 11.6284 67.9479H14.674C14.8585 67.9574 15.08 67.9669 15.3015 67.9669C16.1321 67.9669 16.9443 67.8721 17.7195 67.692H17.6457C18.3378 67.455 18.8731 66.9147 19.1315 66.2417V66.2228C19.2607 65.7867 19.3253 65.2749 19.3253 64.7535C19.3253 64.6967 19.3253 64.6304 19.3253 64.5735C19.3253 63.0853 18.79 62.1753 17.7287 61.853C16.1321 61.5876 14.2217 61.3982 12.2744 61.3224H12.1821C9.53346 61.1233 7.6969 60.9432 6.66326 60.7631C3.96843 60.2417 2.15958 59.1613 1.25514 57.5404C0.461459 55.9196 0 54.0048 0 51.9763C0 51.7299 1.80256e-05 51.4834 0.0184758 51.2465V51.2844C0.0184758 51.1422 0.0184758 50.9811 0.0184758 50.8105C0.0184758 49.1707 0.258409 47.5878 0.692167 46.0996L0.664481 46.2133C1.03364 45 1.76273 43.9954 2.72253 43.294H2.74098C4.25452 42.2324 6.09107 41.5782 8.07528 41.4834H8.09376C9.90262 41.3223 11.9145 41.2465 14.1202 41.2465C14.4617 41.237 14.8678 41.2275 15.2738 41.2275C17.4888 41.2275 19.6483 41.4552 21.7341 41.8912L21.531 41.8532C25.1395 42.8485 26.9391 45.6353 26.9391 50.204C26.9391 50.5831 26.9391 51.1421 26.8561 51.891L26.9207 51.8248L26.9115 51.8343ZM63.3102 74.962V41.0095H79.8853C80.0791 41.0095 80.3098 41 80.5313 41C82.1464 41 83.7153 41.2087 85.2104 41.6163L85.0812 41.5878C87.6837 42.3556 89.7141 44.3554 90.5539 46.9147L90.5724 46.9716C91.043 48.6493 91.3199 50.5736 91.3199 52.5641C91.3199 52.858 91.3199 53.1612 91.3014 53.4551V53.4171C91.3199 53.7489 91.3291 54.1374 91.3291 54.526C91.3291 56.7725 91.0246 58.9527 90.4616 61.019L90.4985 60.8485C89.5203 63.7205 87.0008 65.7773 83.9737 65.9858H83.9553C83.5677 66.0522 81.9249 66.1184 79.0178 66.1658H72.2253V74.9241L63.301 74.9715L63.3102 74.962ZM72.2161 58.3175H77.7996C77.9103 58.3175 78.0488 58.3175 78.178 58.3175C79.1839 58.3175 80.1622 58.1659 81.0759 57.872L81.002 57.891C81.5834 57.4929 81.9711 56.8485 82.0541 56.1186C82.1649 55.4077 82.2295 54.6018 82.2295 53.7867C82.2295 53.6729 82.2295 53.5593 82.2295 53.4456V53.4646C82.2295 53.3319 82.2295 53.1707 82.2295 53.0191C82.2295 52.0428 82.1003 51.0949 81.8695 50.1945L81.888 50.2701C81.5281 49.2749 80.6513 48.5641 79.5992 48.4788H72.2068V58.3175H72.2161ZM110.295 69.0948H98.3985L96.8019 74.962H87.5915L97.4663 41.0095H110.95L121 74.962H111.993L110.304 69.0948H110.295ZM108.532 62.4788L104.36 47.7679L100.327 62.4788H108.532ZM51.0266 45.9291C54.6535 45.9291 57.8836 47.6636 59.997 50.3555L60.0155 50.3745L60.1632 50.5545L60.2647 50.3366L62.175 46.1186V46.0142L62.1013 45.9386C59.0557 43.0002 54.9396 41.1898 50.4082 41.1898C46.8551 41.1898 43.5604 42.2987 40.8286 44.2039L40.8932 44.1659C38.1984 46.0332 36.1034 48.6208 34.8483 51.6635L34.8114 51.7773L34.9498 51.6919H31.1198V51.7773L28.9141 56.621L28.8126 56.82H33.8516L33.7132 56.7157V58.0805C33.7132 58.0805 33.7132 59.1801 33.7962 59.7393L33.9347 59.5782H31.4613V59.6636L29.2556 64.5355L29.1541 64.7346H35.2267L35.0883 64.6494C37.7554 70.7631 43.6342 74.9431 50.4636 74.9431C50.5005 74.9431 50.5374 74.9431 50.5743 74.9431C54.0721 74.8957 57.3022 73.7772 59.9786 71.891L59.9232 71.9289H59.9878V65.5308L59.7387 65.8247C57.6068 68.3176 54.4966 69.8816 51.0358 69.8816C46.9935 69.8816 43.4404 67.7583 41.3731 64.5261L41.3454 64.4786L41.2255 64.7061H53.5737V64.6209L55.8348 59.7678L55.9363 59.5687H39.4351L39.5735 59.6921C39.4904 59.1613 39.4535 58.5546 39.4535 57.9384V56.6492L39.3151 56.7726H57.173V56.6872L59.3787 51.8153L59.4802 51.6163H40.8932L41.0132 51.8343C43.062 48.2608 46.772 45.8911 51.0358 45.8722V45.9386L51.0266 45.9291ZM40.8748 52.5262H58.6588L58.5389 51.7014L56.3332 56.5736L57.0623 55.8627H38.7429L38.6045 56.6115V57.91C38.6045 58.5356 38.6506 59.1611 38.7337 59.7583V59.6921L38.8629 60.4407H55.0873L54.9673 59.6162L52.7616 64.4881L53.4907 63.7772H40.1826C40.1826 63.7772 40.4133 64.4219 40.5056 64.6304C42.2499 68.3745 47.0397 70.782 51.0358 70.782C54.5797 70.782 57.7636 69.1706 59.9324 66.6398H59.9417L59.0926 66.5261V71.9479L59.7571 71.1991C57.1545 73 53.9429 74.0806 50.4913 74.0806H50.4544C50.3713 74.0806 50.2698 74.0806 50.1682 74.0806C43.8095 74.0806 38.3368 70.2039 35.8635 64.6209L35.8266 64.5166C35.7527 64.3554 35.6051 63.8057 35.6051 63.8057H29.8555L29.9939 64.6304L32.1996 59.7583L31.4705 60.4692H34.7653L34.5899 59.6921V56.6398L34.7283 55.8627H29.6524L29.7724 56.6872L31.9781 51.8153L31.249 52.5262H35.4482L35.7158 51.8153C36.9064 48.839 38.8905 46.403 41.4008 44.7253L41.4562 44.6873C43.8557 43.0096 46.8274 42.0048 50.0206 42.0048C50.1775 42.0048 50.3252 42.0048 50.4821 42.0048H50.4636H50.519C54.9119 42.0048 58.8988 43.7867 61.8336 46.6777L61.566 45.8816L59.6556 49.4836H60.2647C58.0774 46.7253 54.7735 44.9717 51.0635 44.9717H51.0542C46.4398 45.2466 42.4714 47.8438 40.2103 51.6258L40.1734 51.6824L39.8042 52.5167H40.8748V52.5262Z" fill="#969EA7"/>
</svg>
