<svg width="167" height="116" viewBox="0 0 167 116" fill="none" xmlns="http://www.w3.org/2000/svg">
<path d="M28.5733 29.0093C22.8916 29.0093 17.3751 30.6919 12.6938 33.8908C8.0126 37.0898 4.3319 41.6385 2.16569 46.8529C-0.0097089 52.243 -0.505375 57.9658 0.495123 63.6887C1.49562 69.4116 4.17586 74.4689 8.18703 78.5091C12.1982 82.5494 17.3842 85.4155 22.9007 86.4232C28.4172 87.6067 34.2642 86.9317 39.4503 84.7405C44.6364 82.5494 49.1432 78.8513 52.3191 73.9605C55.495 69.2453 57.1655 63.5224 57.1655 57.7903C57.1655 50.0426 54.1549 42.6371 48.8036 37.247C43.4523 32.0234 36.1 29 28.5733 29V29.0093ZM1.82607 59.1493H10.6837C10.6837 63.1896 11.3537 67.2297 12.5194 71.1036H5.1672C3.15702 67.3962 1.99129 63.1896 1.82607 59.1493ZM29.5738 42.9884V31.2005C34.5855 31.709 38.9362 36.2485 41.6073 42.9884H29.5738ZM42.2865 45.0038C43.4614 48.8777 44.1224 52.9178 44.2876 56.9581H29.5738V45.0038H42.2865ZM27.4076 31.2005V42.9884H15.3741C18.0452 36.2485 22.5612 31.709 27.4076 31.2005ZM27.4076 45.0038V56.9581H12.6938C12.6938 52.9178 13.3639 48.8777 14.6948 45.0038H27.4076ZM10.6837 56.9581H1.82607C1.99129 52.7514 3.1662 48.7112 5.1672 45.0038H12.5194C11.3537 48.8777 10.8489 52.9178 10.6837 56.9581ZM12.6938 59.1493H27.4076V71.1036H14.704C13.5291 67.2297 12.8591 63.1896 12.6938 59.1493ZM27.4076 73.1282V84.9161C22.3959 84.4076 18.0452 79.8681 15.3741 73.1282H27.4076ZM29.5738 84.9161V72.9619H41.6073C38.9271 79.859 34.5855 84.4076 29.5738 84.9161ZM29.5738 70.9372V58.983H44.2876C44.2876 63.0232 43.6175 67.0634 42.2865 70.9372H29.5738ZM46.2977 59.1493H55.1553C54.9901 63.356 53.8152 67.3962 51.8142 71.1036H44.462C45.6277 67.0633 46.2977 63.1896 46.2977 59.1493ZM46.2977 56.9581C46.2977 52.9178 45.6277 48.8777 44.462 45.0038H51.8142C53.8152 48.7112 54.9901 52.7514 55.1553 56.9581H46.2977ZM50.6393 42.9884H43.7827C43.1126 41.1393 42.2774 39.4473 41.2769 37.7646C40.102 35.7491 38.771 34.0573 37.1005 32.5411C42.617 34.3901 47.2982 38.0976 50.6393 42.9791V42.9884ZM19.8809 32.5411C18.3756 34.0573 16.8702 35.7399 15.7045 37.7646C14.704 39.4473 13.8688 41.1301 13.1987 42.9884H6.34206C9.68318 38.1068 14.3644 34.4086 19.8809 32.5503V32.5411ZM6.34206 73.1282H13.1987C13.8688 74.9773 14.704 76.6694 15.7045 78.352C16.8794 80.2011 18.2104 82.0593 19.8809 83.5756C14.3644 81.7265 9.68318 78.0191 6.34206 73.1375V73.1282ZM37.1005 83.5663C38.771 82.0501 40.1112 80.3675 41.2769 78.3428C42.2774 76.6601 43.1126 74.8017 43.7827 73.119H50.6393C47.2982 78.0006 42.617 81.708 37.1005 83.5571V83.5663ZM136.067 49.7191H131.386V75.6522H136.067V49.7191ZM133.727 46.1873C135.397 46.1873 136.902 44.8375 136.902 42.9884C136.902 41.1393 135.562 39.7895 133.727 39.7895C132.056 39.7895 130.551 41.1393 130.551 42.9884C130.551 44.8375 132.056 46.1873 133.727 46.1873ZM145.595 56.6254H152.451V52.585H145.595V48.8776C145.595 46.1872 147.431 44.6711 150.606 44.6711H152.442V39.9559H150.606C144.585 39.9559 140.914 43.3212 140.914 48.7112V75.8188H145.595V56.6254ZM165.155 75.8188H166.991V71.1036H165.155C161.979 71.1036 160.143 69.5873 160.143 66.8969V56.6254H167V52.585H160.143V39.9559H155.462V67.0634C155.462 72.2871 159.134 75.6524 165.155 75.8188ZM105.979 75.8188L110.66 56.4497L115.341 75.8188H120.693L127.88 49.8854H123.033L118.021 69.7538L113.175 49.8854H107.989L103.143 69.7538L98.1308 49.8854H93.4496L100.637 75.8188H105.988H105.979ZM80.5625 71.4458C76.5513 71.4458 73.2102 68.9218 72.0353 66.3978L67.6845 68.7552C69.6855 73.3039 74.7063 76.3366 80.3881 76.3366C87.7403 76.3366 92.9264 72.1298 92.9264 66.0649C92.9264 52.0858 73.3663 57.9844 73.3663 49.8947C73.3663 46.3537 76.3769 44.6711 80.5533 44.6711C83.8944 44.6711 86.9051 46.52 88.7409 48.8776L92.4216 45.6787C89.9158 42.1377 85.3997 40.1222 80.5533 40.1222C73.0266 40.1222 68.3454 44.8374 68.3454 49.8854C68.3454 63.5224 88.0708 56.7917 88.0708 66.222C88.0708 69.2545 85.0602 71.4458 80.5441 71.4458H80.5625Z" fill="#969EA7"/>
</svg>
