<svg width="185" height="116" viewBox="0 0 185 116" fill="none" xmlns="http://www.w3.org/2000/svg">
<path d="M49.0045 57.9954C49.0045 71.7959 38.0195 83 24.4931 83C10.9575 83 -0.00920209 71.7959 5.79413e-06 57.986C0.00921368 44.0257 11.1969 32.9344 24.622 33.0003C38.0379 33.0661 48.9952 44.2514 49.0045 58.0049V57.9954ZM24.4931 76.8382C34.6586 76.8476 42.9456 68.4093 42.9548 58.0237C42.964 47.6287 34.7322 39.1997 24.539 39.1621C14.3735 39.1339 6.07727 47.5627 6.04965 57.9484C6.03123 68.3528 14.2907 76.8194 24.4931 76.8382Z" fill="#969EA7"/>
<path d="M161.81 55.8222H155.328C155.208 56.509 155.079 57.1768 154.978 57.8541C154.61 60.1213 154.232 62.3886 153.873 64.6558C153.523 66.9135 154.729 68.4468 156.976 68.5409C157.704 68.5691 158.44 68.4374 159.158 68.3151C159.481 68.2587 159.656 68.2775 159.757 68.6162C159.83 68.842 159.95 69.0488 160.098 69.378C159.085 69.7261 158.127 70.1212 157.142 70.3752C155.199 70.8644 153.228 70.9303 151.286 70.4129C150.678 70.253 150.07 69.9707 149.536 69.632C147.943 68.616 147.584 67.0546 147.87 65.286C148.348 62.2475 148.864 59.209 149.361 56.1704C149.38 56.0764 149.38 55.9822 149.398 55.8411C148.339 55.8411 147.308 55.8223 146.286 55.8599C146.138 55.8599 145.963 56.0762 145.862 56.2361C142.98 60.7328 140.107 65.2295 137.244 69.7356C137.004 70.1213 136.756 70.3001 136.304 70.2436C135.936 70.206 135.549 70.2154 135.181 70.2436C134.877 70.2625 134.748 70.14 134.638 69.8578C133.339 66.6405 132.023 63.4326 130.715 60.2154C130.66 60.0743 130.586 59.9333 130.494 59.717C130.347 59.9051 130.246 60.0274 130.154 60.1591C127.778 63.3764 125.393 66.5843 123.027 69.8109C122.796 70.1308 122.557 70.2624 122.17 70.2342C121.645 70.1966 121.111 70.2342 120.55 70.2342C118.736 64.176 116.922 58.1364 115.099 52.0688H121.268C122.17 55.5588 123.082 59.0677 124.003 62.6331C124.104 62.5014 124.224 62.3792 124.325 62.2381C126.673 59.002 129.021 55.7564 131.35 52.5109C131.581 52.191 131.811 51.9935 132.225 52.0405C132.677 52.097 133.238 51.9089 133.551 52.1347C133.864 52.351 133.929 52.9438 134.085 53.3765C135.135 56.3492 136.185 59.3219 137.234 62.2946C137.28 62.4263 137.336 62.5579 137.4 62.7273C137.492 62.5956 137.566 62.5108 137.621 62.4167C139.592 59.1148 141.562 55.8128 143.523 52.5015C143.726 52.1534 143.947 52.0405 144.343 52.0499C146.065 52.0781 147.787 52.0593 149.518 52.0593C149.683 52.0593 149.858 52.0593 150.061 52.0593C150.337 50.4225 150.604 48.8139 150.88 47.1864H156.764C156.497 48.7951 156.239 50.3942 155.972 52.0499H162.455C162.243 53.3481 162.04 54.5899 161.829 55.8505L161.81 55.8222Z" fill="#969EA7"/>
<path d="M68.7369 70.065C70.1181 61.7489 71.4809 53.4986 72.8529 45.2297H78.7458C78.2486 48.2212 77.7606 51.2034 77.2542 54.2607C77.4199 54.1572 77.5304 54.1008 77.6225 54.035C80.1731 52.0594 83.0459 51.2315 86.2226 51.5513C87.6407 51.6924 88.9942 52.0782 90.136 53.0189C91.0292 53.7527 91.5817 54.7122 91.5448 55.8693C91.508 57.1205 91.3423 58.3811 91.149 59.6228C90.6149 62.9812 90.0348 66.3301 89.4915 69.6791C89.4455 69.9425 89.3625 70.0744 89.0863 70.065C87.3276 70.0556 85.5781 70.065 83.8194 70.065C83.7549 70.065 83.6997 70.0461 83.5616 70.0273C83.6444 69.4911 83.7089 68.9641 83.801 68.4373C84.3442 65.1448 84.8967 61.8616 85.4308 58.5691C85.5137 58.0423 85.5505 57.4779 85.4953 56.9511C85.348 55.5024 84.4179 54.6181 82.9355 54.4017C81.1123 54.1383 79.5378 54.8158 77.9909 55.7095C77.1713 56.1798 76.803 56.7912 76.6556 57.7602C76.0571 61.7489 75.3666 65.7281 74.6945 69.7074C74.6668 69.8485 74.4826 70.065 74.3721 70.065C72.5213 70.0838 70.6798 70.0836 68.7461 70.0836L68.7369 70.065Z" fill="#969EA7"/>
<path d="M183.394 65.2107C182.049 67.4402 180.208 69.0864 177.758 69.8955C173.955 71.156 170.107 71.2313 166.313 69.9237C163.67 69.0112 161.709 67.2709 161.092 64.3735C160.365 60.921 161.377 57.9201 163.735 55.399C165.604 53.4046 167.952 52.2852 170.567 51.7114C173.55 51.0623 176.543 50.9869 179.499 51.843C181.451 52.4168 183.108 53.4704 184.149 55.333C185.033 56.9229 185.097 58.6445 184.922 60.4037C184.885 60.7517 184.83 61.0997 184.775 61.4666H168.919C169.103 60.6199 169.259 59.8016 169.48 59.002C169.508 58.8891 169.839 58.8043 170.024 58.8043C172.722 58.7949 175.419 58.8043 178.108 58.8043C178.311 58.8043 178.513 58.8043 178.707 58.8043C179.02 56.603 178.108 54.9851 176.524 54.5053C174.49 53.8938 172.501 54.0254 170.613 55.079C170.263 55.2766 169.922 55.5306 169.646 55.8317C167.768 57.9201 166.801 60.3284 167.298 63.1976C167.712 65.6059 169.278 67.1769 171.865 67.6472C175.346 68.2775 178.569 67.7037 181.34 65.286C182.178 64.5522 182.445 64.5616 183.403 65.2201L183.394 65.2107Z" fill="#969EA7"/>
<path d="M94.8412 56.0668C96.0935 54.2136 97.6681 52.8496 99.703 52.1441C103.156 50.9494 106.655 50.9116 110.136 52.0122C111.894 52.5673 113.275 53.6209 113.791 55.54C114.104 56.6877 113.975 57.8543 113.791 59.0114C113.211 62.5203 112.622 66.0292 112.06 69.5475C111.996 69.9332 111.867 70.0744 111.462 70.0649C109.896 70.0367 108.331 70.0555 106.756 70.0555C106.6 70.0555 106.443 70.0461 106.259 70.0367C106.36 69.3876 106.452 68.7666 106.563 68.0423C106.158 68.3057 105.845 68.5126 105.522 68.7101C102.493 70.5069 99.2703 71.062 95.845 70.2248C95.5319 70.1495 95.2188 70.0272 94.915 69.8955C91.4436 68.3338 91.3976 64.9192 92.9721 62.5109C94.1231 60.7517 95.8265 59.7639 97.7509 59.1336C100.458 58.2493 103.22 58.1553 106.02 58.6727C106.139 58.6915 106.259 58.7386 106.406 58.7857C106.268 59.6229 106.13 60.4506 105.992 61.2502C105.127 61.2032 104.298 61.1092 103.478 61.1281C102.208 61.1563 100.992 61.4478 99.9056 62.1627C99.0492 62.7272 98.4692 63.4986 98.3126 64.5428C98.064 66.2079 99.0217 67.3933 100.799 67.6755C102.696 67.9765 104.464 67.5156 106.195 66.763C106.664 66.5654 106.885 66.302 106.968 65.7752C107.336 63.5645 107.815 61.3631 108.119 59.143C108.239 58.2587 108.082 57.2993 107.88 56.4244C107.686 55.5872 107.005 55.0509 106.241 54.6746C104.74 53.9408 103.156 53.9033 101.545 54.0726C99.6017 54.2796 97.9076 55.098 96.4435 56.415C96.3146 56.5279 96.0476 56.5654 95.8726 56.5184C95.5319 56.4243 95.2096 56.2456 94.8229 56.0857L94.8412 56.0668Z" fill="#969EA7"/>
<path d="M63.7554 47.1865C63.5621 48.3342 63.3779 49.4818 63.1846 50.6295C62.4203 55.2296 61.6468 59.8205 60.9101 64.4207C60.8088 65.0415 60.8181 65.7092 60.947 66.3207C61.214 67.5813 62.2914 68.4751 63.5989 68.5221C64.5749 68.5597 65.5602 68.4281 66.6283 68.3717C66.7296 68.588 66.8952 68.9171 67.1162 69.3781C66.1126 69.7261 65.155 70.1213 64.1698 70.3753C62.2177 70.8739 60.2287 70.9492 58.2675 70.4224C56.6929 70.0085 55.413 69.1619 54.925 67.4592C54.6303 66.4338 54.8422 65.399 55.008 64.3736C55.8459 59.3031 56.6838 54.2418 57.5309 49.1713C57.623 48.6069 57.7058 48.0332 57.8255 47.4782C57.8531 47.3465 58.0465 47.1677 58.1662 47.1677C59.9709 47.1488 61.7665 47.1582 63.5712 47.1582C63.6173 47.1582 63.6542 47.1865 63.7462 47.2147L63.7554 47.1865Z" fill="#969EA7"/>
<path d="M64.1882 55.8317C64.3908 54.6276 64.575 53.4611 64.7776 52.3134C64.796 52.2193 64.9616 52.0876 65.0537 52.0876C66.4902 52.0782 67.9359 52.0876 69.3723 52.0876C69.4183 52.0876 69.4551 52.1253 69.5195 52.1536C69.3354 53.3012 69.1512 54.4488 68.9486 55.5871C68.9302 55.6812 68.7738 55.8223 68.6817 55.8223C67.1992 55.8411 65.7167 55.8317 64.179 55.8317H64.1882Z" fill="#969EA7"/>
<path d="M18.508 47.0734H24.447C24.3457 48.1082 24.2537 49.1054 24.1616 50.1026C23.9222 52.5202 23.6828 54.9381 23.4526 57.3463C23.3421 58.447 23.2593 59.5382 23.1304 60.6389C22.983 61.9088 23.2408 62.2945 24.4839 62.4827C26.0769 62.7178 27.679 62.9342 29.272 63.16C29.7784 63.2352 30.2848 63.3199 30.8465 63.4045C30.7452 63.5551 30.6899 63.6584 30.6163 63.7525C29.4837 65.2388 28.342 66.7252 27.2186 68.2209C27.0252 68.4749 26.8411 68.5691 26.5096 68.5315C24.4839 68.2586 22.4489 68.014 20.414 67.7412C20.1654 67.7129 19.9259 67.6095 19.6957 67.5342C17.9278 66.9698 17.0255 65.6999 16.7953 63.8561C16.5559 61.9464 16.7952 60.0555 17.0346 58.1741C17.4306 54.9568 17.8727 51.7489 18.2962 48.541C18.3607 48.0707 18.4343 47.5908 18.508 47.0734Z" fill="#969EA7"/>
<path d="M25.2665 55.7283C25.3862 54.2608 25.5059 52.8213 25.6256 51.3632H30.8373C30.7176 52.8213 30.6071 54.2608 30.4874 55.7283H25.2665Z" fill="#969EA7"/>
</svg>
