<svg width="108" height="116" viewBox="0 0 108 116" fill="none" xmlns="http://www.w3.org/2000/svg">
<path d="M107.5 74.4376C105.096 74.4376 102.691 74.4376 100.287 74.4649C99.6948 74.4649 99.4266 74.3192 99.3157 73.7002C99.0845 72.3529 98.7608 71.0148 98.4556 69.6129C98.1782 69.5856 97.91 69.5311 97.6511 69.5311C94.516 69.5311 91.381 69.5493 88.246 69.5129C87.5709 69.5129 87.2473 69.7131 87.0438 70.3412C86.6646 71.5155 86.2392 72.6717 85.7584 73.8186C85.6474 74.0917 85.259 74.4194 85 74.4285C82.2164 74.474 79.4328 74.4558 76.5198 74.4558C76.677 74.0553 76.7879 73.7457 76.9174 73.4362C80.9957 63.8325 85.074 54.2289 89.1523 44.6252C90.1603 42.2493 91.2608 41.5303 93.8687 41.5303C96.0604 41.5303 98.2429 41.5303 100.509 41.5303C101.248 44.9803 101.97 48.3575 102.682 51.7347C104.226 59.008 105.761 66.2813 107.306 73.5546C107.343 73.7185 107.435 73.8641 107.5 74.0189V74.4376ZM94.4791 50.8426C94.4143 50.8244 94.3496 50.8062 94.2756 50.788C92.8144 54.7387 91.3533 58.6895 89.8736 62.7039H96.9852C96.1344 58.6804 95.3021 54.7569 94.4698 50.8426H94.4791Z" fill="#969EA7"/>
<path d="M0.502587 42.4859C0.465596 41.6939 0.826267 41.5211 1.51985 41.5211C5.94032 41.5484 10.37 41.5211 14.7905 41.5393C17.5186 41.5393 18.9613 42.7683 19.4606 45.4081C20.5796 51.3342 21.7171 57.2509 22.8454 63.177C22.8731 63.3045 22.9378 63.4137 23.0488 63.6959C23.2338 63.2954 23.3632 63.0405 23.4742 62.7765C26.1931 56.0312 28.9119 49.2859 31.5938 42.5314C31.8897 41.7759 32.2319 41.4847 33.0919 41.512C35.6998 41.5757 38.3077 41.5393 41.0358 41.5393C40.9064 41.9035 40.8231 42.1946 40.7122 42.4677C36.2917 52.8542 31.862 63.2407 27.46 73.6364C27.1826 74.2827 26.8682 74.5013 26.1653 74.4831C23.7979 74.4376 21.4304 74.4194 19.063 74.4831C18.1474 74.5104 17.833 74.2009 17.6111 73.3634C15.4748 65.0706 13.2553 56.7959 11.1376 48.494C10.6844 46.7007 9.76892 45.4444 8.01183 44.8527C5.83859 44.1245 3.6561 43.4508 1.47361 42.759C1.14994 42.6589 0.817016 42.5769 0.511837 42.4859H0.502587Z" fill="#969EA7"/>
<path d="M78.4988 42.4497C77.9994 44.7528 77.5093 47.0102 77.0006 49.3679C74.402 48.3028 71.8126 47.6658 69.103 47.9115C68.095 48.0026 67.0222 48.2665 66.1344 48.7398C64.4606 49.6319 64.3219 51.3887 65.8478 52.4993C67.1794 53.4642 68.6961 54.2016 70.1295 55.039C70.9711 55.5306 71.8311 55.9768 72.6357 56.5229C77.8237 60.0276 78.4248 66.4544 73.9858 70.8875C71.9051 72.963 69.2787 74.037 66.4304 74.5741C61.9544 75.4024 57.5617 74.9837 53.2337 73.6547C52.4569 73.418 52.2165 73.1176 52.4292 72.271C52.947 70.2501 53.3354 68.193 53.7423 66.3087C55.8693 66.8731 57.9039 67.6377 60.0124 67.9199C61.7232 68.1475 63.5266 67.8471 65.2744 67.665C65.82 67.6104 66.3749 67.2371 66.828 66.8821C68.1227 65.8716 68.2615 64.215 67.0315 63.1317C66.1067 62.3216 64.9877 61.7299 63.9242 61.0927C62.4723 60.2188 60.9094 59.4996 59.5407 58.5165C53.6776 54.3109 55.5642 47.7203 59.1338 44.6799C62.7035 41.6395 66.976 40.8566 71.5167 41.0205C73.8934 41.1024 76.1961 41.5756 78.4988 42.4768V42.4497Z" fill="#969EA7"/>
<path d="M53.4372 41.5756C52.9748 43.7148 52.5401 45.754 52.0962 47.793C50.2189 56.3954 48.3416 64.9978 46.4921 73.6093C46.3441 74.3011 46.0759 74.4831 45.4008 74.474C42.8577 74.4376 40.3237 74.4649 37.6419 74.4649C40.0371 63.4412 42.4138 52.5265 44.7905 41.5847H53.4279L53.4372 41.5756Z" fill="#969EA7"/>
</svg>
